<svg width="283" height="60" viewBox="0 0 283 60" fill="none" xmlns="http://www.w3.org/2000/svg">
<rect x="1" y="1" width="281" height="58" rx="16" fill="#040404" stroke="white" stroke-width="2"/>
<path d="M55.8066 32.9316H52.1836V30.6465H55.8066C56.3665 30.6465 56.8223 30.5553 57.1738 30.373C57.5254 30.1842 57.7826 29.9238 57.9453 29.5918C58.1081 29.2598 58.1895 28.8854 58.1895 28.4688C58.1895 28.0456 58.1081 27.6517 57.9453 27.2871C57.7826 26.9225 57.5254 26.6296 57.1738 26.4082C56.8223 26.1868 56.3665 26.0762 55.8066 26.0762H53.1992V38H50.2695V23.7812H55.8066C56.9199 23.7812 57.8737 23.9831 58.668 24.3867C59.4688 24.7839 60.0807 25.334 60.5039 26.0371C60.9271 26.7402 61.1387 27.5443 61.1387 28.4492C61.1387 29.3672 60.9271 30.1615 60.5039 30.832C60.0807 31.5026 59.4688 32.0202 58.668 32.3848C57.8737 32.7493 56.9199 32.9316 55.8066 32.9316ZM68.9703 35.6172V30.9102C68.9703 30.5716 68.915 30.2819 68.8043 30.041C68.6936 29.7936 68.5211 29.6016 68.2867 29.4648C68.0589 29.3281 67.7626 29.2598 67.398 29.2598C67.0855 29.2598 66.8154 29.3151 66.5875 29.4258C66.3596 29.5299 66.1839 29.6829 66.0602 29.8848C65.9365 30.0801 65.8746 30.3112 65.8746 30.5781H63.0621C63.0621 30.1289 63.1663 29.7025 63.3746 29.2988C63.5829 28.8952 63.8857 28.5404 64.2828 28.2344C64.6799 27.9219 65.152 27.6777 65.6988 27.502C66.2522 27.3262 66.8707 27.2383 67.5543 27.2383C68.3746 27.2383 69.1038 27.375 69.7418 27.6484C70.3798 27.9219 70.8811 28.332 71.2457 28.8789C71.6168 29.4258 71.8023 30.1094 71.8023 30.9297V35.4512C71.8023 36.0306 71.8382 36.5059 71.9098 36.877C71.9814 37.2415 72.0855 37.5605 72.2223 37.834V38H69.3805C69.2437 37.7135 69.1396 37.3555 69.068 36.9258C69.0029 36.4896 68.9703 36.0534 68.9703 35.6172ZM69.3414 31.5645L69.3609 33.1562H67.7887C67.4176 33.1562 67.0953 33.1986 66.8219 33.2832C66.5484 33.3678 66.3238 33.4883 66.148 33.6445C65.9723 33.7943 65.8421 33.9701 65.7574 34.1719C65.6793 34.3737 65.6402 34.5951 65.6402 34.8359C65.6402 35.0768 65.6956 35.2949 65.8062 35.4902C65.9169 35.679 66.0764 35.8288 66.2848 35.9395C66.4931 36.0436 66.7372 36.0957 67.0172 36.0957C67.4404 36.0957 67.8082 36.0111 68.1207 35.8418C68.4332 35.6725 68.6741 35.4642 68.8434 35.2168C69.0191 34.9694 69.1103 34.735 69.1168 34.5137L69.859 35.7051C69.7548 35.972 69.6116 36.2487 69.4293 36.5352C69.2535 36.8216 69.0289 37.0918 68.7555 37.3457C68.482 37.5931 68.1533 37.7982 67.7691 37.9609C67.385 38.1172 66.9293 38.1953 66.402 38.1953C65.7314 38.1953 65.1227 38.0618 64.5758 37.7949C64.0354 37.5215 63.6057 37.1471 63.2867 36.6719C62.9742 36.1901 62.818 35.6432 62.818 35.0312C62.818 34.4779 62.9221 33.9863 63.1305 33.5566C63.3388 33.127 63.6448 32.7656 64.0484 32.4727C64.4586 32.1732 64.9697 31.9486 65.5816 31.7988C66.1936 31.6426 66.9033 31.5645 67.7105 31.5645H69.3414ZM78.7355 35.998C79.0806 35.998 79.3866 35.9329 79.6535 35.8027C79.9204 35.666 80.1288 35.4772 80.2785 35.2363C80.4348 34.9889 80.5161 34.6992 80.5227 34.3672H83.1691C83.1626 35.1094 82.9641 35.7702 82.5734 36.3496C82.1828 36.9225 81.6587 37.375 81.0012 37.707C80.3436 38.0326 79.6079 38.1953 78.7941 38.1953C77.9738 38.1953 77.2577 38.0586 76.6457 37.7852C76.0402 37.5117 75.5357 37.1341 75.132 36.6523C74.7284 36.1641 74.4257 35.5977 74.2238 34.9531C74.022 34.3021 73.9211 33.6055 73.9211 32.8633V32.5801C73.9211 31.8314 74.022 31.1348 74.2238 30.4902C74.4257 29.8392 74.7284 29.2728 75.132 28.791C75.5357 28.3027 76.0402 27.9219 76.6457 27.6484C77.2512 27.375 77.9608 27.2383 78.7746 27.2383C79.6405 27.2383 80.399 27.4043 81.05 27.7363C81.7076 28.0684 82.2219 28.5436 82.593 29.1621C82.9706 29.7741 83.1626 30.5 83.1691 31.3398H80.5227C80.5161 30.9883 80.4413 30.6693 80.298 30.3828C80.1613 30.0964 79.9595 29.8685 79.6926 29.6992C79.4322 29.5234 79.1099 29.4355 78.7258 29.4355C78.3156 29.4355 77.9803 29.5234 77.7199 29.6992C77.4595 29.8685 77.2577 30.1029 77.1145 30.4023C76.9712 30.6953 76.8703 31.0306 76.8117 31.4082C76.7596 31.7793 76.7336 32.1699 76.7336 32.5801V32.8633C76.7336 33.2734 76.7596 33.6673 76.8117 34.0449C76.8638 34.4225 76.9615 34.7578 77.1047 35.0508C77.2544 35.3438 77.4595 35.5749 77.7199 35.7441C77.9803 35.9134 78.3189 35.998 78.7355 35.998ZM89.5652 35.998C89.9103 35.998 90.2163 35.9329 90.4832 35.8027C90.7501 35.666 90.9585 35.4772 91.1082 35.2363C91.2645 34.9889 91.3458 34.6992 91.3523 34.3672H93.9988C93.9923 35.1094 93.7938 35.7702 93.4031 36.3496C93.0125 36.9225 92.4884 37.375 91.8309 37.707C91.1733 38.0326 90.4376 38.1953 89.6238 38.1953C88.8035 38.1953 88.0874 38.0586 87.4754 37.7852C86.8699 37.5117 86.3654 37.1341 85.9617 36.6523C85.5581 36.1641 85.2553 35.5977 85.0535 34.9531C84.8517 34.3021 84.7508 33.6055 84.7508 32.8633V32.5801C84.7508 31.8314 84.8517 31.1348 85.0535 30.4902C85.2553 29.8392 85.5581 29.2728 85.9617 28.791C86.3654 28.3027 86.8699 27.9219 87.4754 27.6484C88.0809 27.375 88.7905 27.2383 89.6043 27.2383C90.4702 27.2383 91.2286 27.4043 91.8797 27.7363C92.5372 28.0684 93.0516 28.5436 93.4227 29.1621C93.8003 29.7741 93.9923 30.5 93.9988 31.3398H91.3523C91.3458 30.9883 91.271 30.6693 91.1277 30.3828C90.991 30.0964 90.7892 29.8685 90.5223 29.6992C90.2618 29.5234 89.9396 29.4355 89.5555 29.4355C89.1453 29.4355 88.81 29.5234 88.5496 29.6992C88.2892 29.8685 88.0874 30.1029 87.9441 30.4023C87.8009 30.6953 87.7 31.0306 87.6414 31.4082C87.5893 31.7793 87.5633 32.1699 87.5633 32.5801V32.8633C87.5633 33.2734 87.5893 33.6673 87.6414 34.0449C87.6935 34.4225 87.7911 34.7578 87.9344 35.0508C88.0841 35.3438 88.2892 35.5749 88.5496 35.7441C88.81 35.9134 89.1486 35.998 89.5652 35.998ZM104.936 27.4336V38H102.114V27.4336H104.936ZM103.608 31.9551V34.1523C103.393 34.263 103.116 34.3672 102.778 34.4648C102.439 34.5625 102.081 34.6406 101.704 34.6992C101.332 34.7513 100.987 34.7773 100.668 34.7773C99.6527 34.7773 98.7803 34.6374 98.0512 34.3574C97.3285 34.0775 96.7719 33.638 96.3812 33.0391C95.9906 32.4401 95.7953 31.6719 95.7953 30.7344V27.4238H98.6078V30.7344C98.6078 31.2096 98.6794 31.584 98.8227 31.8574C98.9659 32.1243 99.1872 32.3132 99.4867 32.4238C99.7927 32.528 100.187 32.5801 100.668 32.5801C101.007 32.5801 101.336 32.554 101.655 32.502C101.974 32.4499 102.293 32.3783 102.612 32.2871C102.931 32.196 103.263 32.0853 103.608 31.9551ZM110.307 34.0742L113.852 27.4336H116.664V38H113.852V31.3496L110.307 38H107.494V27.4336H110.307V34.0742ZM124.613 27.4336V38H121.791V27.4336H124.613ZM128.011 27.4336V29.6113H118.441V27.4336H128.011ZM135.394 35.6172V30.9102C135.394 30.5716 135.338 30.2819 135.228 30.041C135.117 29.7936 134.945 29.6016 134.71 29.4648C134.482 29.3281 134.186 29.2598 133.821 29.2598C133.509 29.2598 133.239 29.3151 133.011 29.4258C132.783 29.5299 132.607 29.6829 132.484 29.8848C132.36 30.0801 132.298 30.3112 132.298 30.5781H129.486C129.486 30.1289 129.59 29.7025 129.798 29.2988C130.006 28.8952 130.309 28.5404 130.706 28.2344C131.103 27.9219 131.575 27.6777 132.122 27.502C132.676 27.3262 133.294 27.2383 133.978 27.2383C134.798 27.2383 135.527 27.375 136.165 27.6484C136.803 27.9219 137.305 28.332 137.669 28.8789C138.04 29.4258 138.226 30.1094 138.226 30.9297V35.4512C138.226 36.0306 138.262 36.5059 138.333 36.877C138.405 37.2415 138.509 37.5605 138.646 37.834V38H135.804C135.667 37.7135 135.563 37.3555 135.491 36.9258C135.426 36.4896 135.394 36.0534 135.394 35.6172ZM135.765 31.5645L135.784 33.1562H134.212C133.841 33.1562 133.519 33.1986 133.245 33.2832C132.972 33.3678 132.747 33.4883 132.571 33.6445C132.396 33.7943 132.265 33.9701 132.181 34.1719C132.103 34.3737 132.064 34.5951 132.064 34.8359C132.064 35.0768 132.119 35.2949 132.23 35.4902C132.34 35.679 132.5 35.8288 132.708 35.9395C132.917 36.0436 133.161 36.0957 133.441 36.0957C133.864 36.0957 134.232 36.0111 134.544 35.8418C134.857 35.6725 135.098 35.4642 135.267 35.2168C135.443 34.9694 135.534 34.735 135.54 34.5137L136.282 35.7051C136.178 35.972 136.035 36.2487 135.853 36.5352C135.677 36.8216 135.452 37.0918 135.179 37.3457C134.905 37.5931 134.577 37.7982 134.193 37.9609C133.808 38.1172 133.353 38.1953 132.825 38.1953C132.155 38.1953 131.546 38.0618 130.999 37.7949C130.459 37.5215 130.029 37.1471 129.71 36.6719C129.398 36.1901 129.241 35.6432 129.241 35.0312C129.241 34.4779 129.346 33.9863 129.554 33.5566C129.762 33.127 130.068 32.7656 130.472 32.4727C130.882 32.1732 131.393 31.9486 132.005 31.7988C132.617 31.6426 133.327 31.5645 134.134 31.5645H135.765ZM146.018 27.4336V38H143.196V27.4336H146.018ZM149.417 27.4336V29.6113H139.846V27.4336H149.417ZM153.196 30.5684H156.262C157.226 30.5684 158.046 30.7279 158.723 31.0469C159.407 31.3594 159.927 31.7956 160.286 32.3555C160.65 32.9154 160.832 33.5632 160.832 34.2988C160.832 34.8327 160.728 35.3275 160.52 35.7832C160.318 36.2324 160.022 36.623 159.631 36.9551C159.241 37.2871 158.762 37.5443 158.196 37.7266C157.629 37.9089 156.985 38 156.262 38H151.438V27.4336H154.26V35.8125H156.262C156.685 35.8125 157.024 35.7441 157.278 35.6074C157.538 35.4642 157.727 35.2786 157.844 35.0508C157.968 34.8229 158.03 34.5755 158.03 34.3086C158.03 34.0286 157.968 33.7747 157.844 33.5469C157.727 33.3125 157.538 33.1237 157.278 32.9805C157.024 32.8372 156.685 32.7656 156.262 32.7656H153.196V30.5684ZM172.57 35.998C172.915 35.998 173.221 35.9329 173.488 35.8027C173.755 35.666 173.963 35.4772 174.113 35.2363C174.269 34.9889 174.351 34.6992 174.357 34.3672H177.004C176.997 35.1094 176.798 35.7702 176.408 36.3496C176.017 36.9225 175.493 37.375 174.836 37.707C174.178 38.0326 173.442 38.1953 172.629 38.1953C171.808 38.1953 171.092 38.0586 170.48 37.7852C169.875 37.5117 169.37 37.1341 168.966 36.6523C168.563 36.1641 168.26 35.5977 168.058 34.9531C167.856 34.3021 167.755 33.6055 167.755 32.8633V32.5801C167.755 31.8314 167.856 31.1348 168.058 30.4902C168.26 29.8392 168.563 29.2728 168.966 28.791C169.37 28.3027 169.875 27.9219 170.48 27.6484C171.086 27.375 171.795 27.2383 172.609 27.2383C173.475 27.2383 174.233 27.4043 174.884 27.7363C175.542 28.0684 176.056 28.5436 176.427 29.1621C176.805 29.7741 176.997 30.5 177.004 31.3398H174.357C174.351 30.9883 174.276 30.6693 174.132 30.3828C173.996 30.0964 173.794 29.8685 173.527 29.6992C173.267 29.5234 172.944 29.4355 172.56 29.4355C172.15 29.4355 171.815 29.5234 171.554 29.6992C171.294 29.8685 171.092 30.1029 170.949 30.4023C170.806 30.6953 170.705 31.0306 170.646 31.4082C170.594 31.7793 170.568 32.1699 170.568 32.5801V32.8633C170.568 33.2734 170.594 33.6673 170.646 34.0449C170.698 34.4225 170.796 34.7578 170.939 35.0508C171.089 35.3438 171.294 35.5749 171.554 35.7441C171.815 35.9134 172.153 35.998 172.57 35.998ZM184.415 27.4336V38H181.593V27.4336H184.415ZM187.814 27.4336V29.6113H178.243V27.4336H187.814ZM195.196 35.6172V30.9102C195.196 30.5716 195.141 30.2819 195.03 30.041C194.919 29.7936 194.747 29.6016 194.512 29.4648C194.285 29.3281 193.988 29.2598 193.624 29.2598C193.311 29.2598 193.041 29.3151 192.813 29.4258C192.585 29.5299 192.41 29.6829 192.286 29.8848C192.162 30.0801 192.1 30.3112 192.1 30.5781H189.288C189.288 30.1289 189.392 29.7025 189.6 29.2988C189.809 28.8952 190.111 28.5404 190.509 28.2344C190.906 27.9219 191.378 27.6777 191.925 27.502C192.478 27.3262 193.096 27.2383 193.78 27.2383C194.6 27.2383 195.33 27.375 195.968 27.6484C196.606 27.9219 197.107 28.332 197.471 28.8789C197.843 29.4258 198.028 30.1094 198.028 30.9297V35.4512C198.028 36.0306 198.064 36.5059 198.136 36.877C198.207 37.2415 198.311 37.5605 198.448 37.834V38H195.606C195.47 37.7135 195.365 37.3555 195.294 36.9258C195.229 36.4896 195.196 36.0534 195.196 35.6172ZM195.567 31.5645L195.587 33.1562H194.014C193.643 33.1562 193.321 33.1986 193.048 33.2832C192.774 33.3678 192.55 33.4883 192.374 33.6445C192.198 33.7943 192.068 33.9701 191.983 34.1719C191.905 34.3737 191.866 34.5951 191.866 34.8359C191.866 35.0768 191.921 35.2949 192.032 35.4902C192.143 35.679 192.302 35.8288 192.511 35.9395C192.719 36.0436 192.963 36.0957 193.243 36.0957C193.666 36.0957 194.034 36.0111 194.346 35.8418C194.659 35.6725 194.9 35.4642 195.069 35.2168C195.245 34.9694 195.336 34.735 195.343 34.5137L196.085 35.7051C195.981 35.972 195.837 36.2487 195.655 36.5352C195.479 36.8216 195.255 37.0918 194.981 37.3457C194.708 37.5931 194.379 37.7982 193.995 37.9609C193.611 38.1172 193.155 38.1953 192.628 38.1953C191.957 38.1953 191.348 38.0618 190.802 37.7949C190.261 37.5215 189.832 37.1471 189.512 36.6719C189.2 36.1901 189.044 35.6432 189.044 35.0312C189.044 34.4779 189.148 33.9863 189.356 33.5566C189.565 33.127 189.871 32.7656 190.274 32.4727C190.684 32.1732 191.195 31.9486 191.807 31.7988C192.419 31.6426 193.129 31.5645 193.936 31.5645H195.567ZM205.86 33.5859H202.549L202.53 31.7402H205.264C205.629 31.7402 205.925 31.7044 206.153 31.6328C206.381 31.5547 206.547 31.4408 206.651 31.291C206.761 31.1348 206.817 30.946 206.817 30.7246C206.817 30.5293 206.781 30.3633 206.709 30.2266C206.644 30.0833 206.543 29.9661 206.407 29.875C206.27 29.7839 206.097 29.7188 205.889 29.6797C205.687 29.6341 205.45 29.6113 205.176 29.6113H203.594V38H200.782V27.4336H205.176C205.866 27.4336 206.485 27.4954 207.032 27.6191C207.579 27.7363 208.044 27.9154 208.428 28.1562C208.819 28.3971 209.115 28.7031 209.317 29.0742C209.525 29.4388 209.629 29.8717 209.629 30.373C209.629 30.6986 209.554 31.0046 209.405 31.291C209.261 31.5775 209.047 31.8314 208.76 32.0527C208.474 32.2741 208.119 32.4564 207.696 32.5996C207.279 32.7363 206.797 32.821 206.25 32.8535L205.86 33.5859ZM205.86 38H201.856L202.823 35.8223H205.86C206.205 35.8223 206.488 35.7799 206.709 35.6953C206.931 35.6107 207.093 35.487 207.198 35.3242C207.308 35.1549 207.364 34.9531 207.364 34.7188C207.364 34.4909 207.315 34.2923 207.217 34.123C207.12 33.9538 206.96 33.8236 206.739 33.7324C206.524 33.6348 206.231 33.5859 205.86 33.5859H203.233L203.252 31.7402H206.241L206.924 32.4824C207.666 32.528 208.278 32.668 208.76 32.9023C209.242 33.1367 209.597 33.4362 209.825 33.8008C210.059 34.1589 210.176 34.5527 210.176 34.9824C210.176 35.4837 210.082 35.9232 209.893 36.3008C209.704 36.6784 209.424 36.9941 209.053 37.248C208.689 37.4954 208.239 37.6842 207.705 37.8145C207.172 37.9382 206.556 38 205.86 38ZM215.303 27.4336V38H212.49V27.4336H215.303ZM222.168 27.4336L217.617 34.0449H214.805L214.463 31.4473H216.328L218.604 27.4336H222.168ZM218.73 38L216.133 33.5371L218.584 32.1797L222.5 38H218.73ZM227.089 36.8086L229.892 27.4336H232.91L228.662 39.5918C228.571 39.8587 228.447 40.1452 228.291 40.4512C228.141 40.7572 227.936 41.0469 227.675 41.3203C227.421 41.6003 227.099 41.8281 226.709 42.0039C226.324 42.1797 225.852 42.2676 225.293 42.2676C225.026 42.2676 224.808 42.2513 224.638 42.2188C224.469 42.1862 224.267 42.1406 224.033 42.082V40.0215C224.104 40.0215 224.179 40.0215 224.257 40.0215C224.336 40.028 224.41 40.0312 224.482 40.0312C224.853 40.0312 225.156 39.9889 225.39 39.9043C225.625 39.8197 225.813 39.6895 225.957 39.5137C226.1 39.3444 226.214 39.123 226.298 38.8496L227.089 36.8086ZM225.918 27.4336L228.212 35.0898L228.613 38.0684L226.699 38.2734L222.9 27.4336H225.918Z" fill="white"/>
</svg>
