<svg width="387" height="57" viewBox="0 0 387 57" fill="none" xmlns="http://www.w3.org/2000/svg">
<path d="M0.800507 15.5C0.800507 7.21573 7.51624 0.5 15.8005 0.5H371.909C380.193 0.5 386.909 7.21573 386.909 15.5V41.5C386.909 49.7843 380.193 56.5 371.909 56.5H15.8005C7.51623 56.5 0.800507 49.7843 0.800507 41.5V15.5Z" fill="#2C2929"/>
<path d="M97.6977 28.2773H93.3031V25.7461H97.6977C98.4164 25.7461 98.9985 25.6289 99.4438 25.3945C99.8969 25.1523 100.229 24.8242 100.44 24.4102C100.651 23.9883 100.756 23.5078 100.756 22.9688C100.756 22.4453 100.651 21.957 100.44 21.5039C100.229 21.0508 99.8969 20.6836 99.4438 20.4023C98.9985 20.1211 98.4164 19.9805 97.6977 19.9805H94.3578V34.5H91.1352V17.4375H97.6977C99.0258 17.4375 100.159 17.6758 101.096 18.1523C102.041 18.6211 102.76 19.2734 103.252 20.1094C103.752 20.9375 104.002 21.8828 104.002 22.9453C104.002 24.0469 103.752 24.9961 103.252 25.793C102.76 26.5898 102.041 27.2031 101.096 27.6328C100.159 28.0625 99.0258 28.2773 97.6977 28.2773ZM113.543 31.8047V25.957C113.543 25.5273 113.469 25.1562 113.32 24.8438C113.172 24.5312 112.945 24.2891 112.641 24.1172C112.336 23.9453 111.949 23.8594 111.48 23.8594C111.066 23.8594 110.703 23.9297 110.391 24.0703C110.086 24.2109 109.852 24.4102 109.688 24.668C109.523 24.918 109.441 25.207 109.441 25.5352H106.336C106.336 25.0117 106.461 24.5156 106.711 24.0469C106.961 23.5703 107.316 23.1484 107.777 22.7812C108.246 22.4062 108.805 22.1133 109.453 21.9023C110.109 21.6914 110.844 21.5859 111.656 21.5859C112.617 21.5859 113.473 21.75 114.223 22.0781C114.98 22.3984 115.574 22.8828 116.004 23.5312C116.441 24.1797 116.66 24.9961 116.66 25.9805V31.5117C116.66 32.1445 116.699 32.6875 116.777 33.1406C116.863 33.5859 116.988 33.9727 117.152 34.3008V34.5H114C113.852 34.1797 113.738 33.7734 113.66 33.2812C113.582 32.7812 113.543 32.2891 113.543 31.8047ZM113.977 26.7773L114 28.6172H112.043C111.559 28.6172 111.133 28.668 110.766 28.7695C110.398 28.8633 110.098 29.0039 109.863 29.1914C109.629 29.3711 109.453 29.5898 109.336 29.8477C109.219 30.0977 109.16 30.3828 109.16 30.7031C109.16 31.0156 109.23 31.2969 109.371 31.5469C109.52 31.7969 109.73 31.9961 110.004 32.1445C110.285 32.2852 110.613 32.3555 110.988 32.3555C111.535 32.3555 112.012 32.2461 112.418 32.0273C112.824 31.8008 113.141 31.5273 113.367 31.207C113.594 30.8867 113.715 30.582 113.73 30.293L114.621 31.6289C114.512 31.9492 114.348 32.2891 114.129 32.6484C113.91 33.0078 113.629 33.3438 113.285 33.6562C112.941 33.9688 112.527 34.2266 112.043 34.4297C111.559 34.6328 110.996 34.7344 110.355 34.7344C109.535 34.7344 108.801 34.5703 108.152 34.2422C107.504 33.9141 106.992 33.4648 106.617 32.8945C106.242 32.3242 106.055 31.6758 106.055 30.9492C106.055 30.2773 106.18 29.6836 106.43 29.168C106.68 28.6523 107.051 28.2188 107.543 27.8672C108.035 27.5078 108.645 27.2383 109.371 27.0586C110.105 26.8711 110.945 26.7773 111.891 26.7773H113.977ZM125.052 32.2969C125.49 32.2969 125.88 32.2109 126.224 32.0391C126.568 31.8672 126.841 31.625 127.045 31.3125C127.255 31 127.369 30.6367 127.384 30.2227H130.302C130.287 31.082 130.045 31.8516 129.576 32.5312C129.107 33.2109 128.482 33.75 127.701 34.1484C126.927 34.5391 126.06 34.7344 125.099 34.7344C124.123 34.7344 123.271 34.5703 122.545 34.2422C121.818 33.9141 121.213 33.457 120.728 32.8711C120.252 32.2852 119.892 31.6055 119.65 30.832C119.416 30.0586 119.298 29.2305 119.298 28.3477V27.9727C119.298 27.0898 119.416 26.2617 119.65 25.4883C119.892 24.7148 120.252 24.0352 120.728 23.4492C121.213 22.8633 121.818 22.4062 122.545 22.0781C123.271 21.75 124.119 21.5859 125.088 21.5859C126.111 21.5859 127.009 21.7852 127.783 22.1836C128.564 22.582 129.173 23.1445 129.611 23.8711C130.056 24.5977 130.287 25.4531 130.302 26.4375H127.384C127.369 25.9844 127.267 25.5781 127.08 25.2188C126.892 24.8594 126.627 24.5703 126.283 24.3516C125.939 24.1328 125.521 24.0234 125.029 24.0234C124.505 24.0234 124.068 24.1328 123.716 24.3516C123.373 24.5703 123.103 24.8711 122.908 25.2539C122.72 25.6289 122.588 26.0508 122.509 26.5195C122.439 26.9805 122.404 27.4648 122.404 27.9727V28.3477C122.404 28.8633 122.439 29.3555 122.509 29.8242C122.588 30.293 122.72 30.7148 122.908 31.0898C123.103 31.457 123.373 31.75 123.716 31.9688C124.068 32.1875 124.513 32.2969 125.052 32.2969ZM137.968 32.2969C138.405 32.2969 138.796 32.2109 139.14 32.0391C139.484 31.8672 139.757 31.625 139.96 31.3125C140.171 31 140.284 30.6367 140.3 30.2227H143.218C143.202 31.082 142.96 31.8516 142.491 32.5312C142.023 33.2109 141.398 33.75 140.616 34.1484C139.843 34.5391 138.976 34.7344 138.015 34.7344C137.038 34.7344 136.187 34.5703 135.46 34.2422C134.734 33.9141 134.128 33.457 133.644 32.8711C133.167 32.2852 132.808 31.6055 132.566 30.832C132.331 30.0586 132.214 29.2305 132.214 28.3477V27.9727C132.214 27.0898 132.331 26.2617 132.566 25.4883C132.808 24.7148 133.167 24.0352 133.644 23.4492C134.128 22.8633 134.734 22.4062 135.46 22.0781C136.187 21.75 137.034 21.5859 138.003 21.5859C139.027 21.5859 139.925 21.7852 140.698 22.1836C141.48 22.582 142.089 23.1445 142.527 23.8711C142.972 24.5977 143.202 25.4531 143.218 26.4375H140.3C140.284 25.9844 140.183 25.5781 139.995 25.2188C139.808 24.8594 139.542 24.5703 139.198 24.3516C138.855 24.1328 138.437 24.0234 137.945 24.0234C137.421 24.0234 136.984 24.1328 136.632 24.3516C136.288 24.5703 136.019 24.8711 135.823 25.2539C135.636 25.6289 135.503 26.0508 135.425 26.5195C135.355 26.9805 135.32 27.4648 135.32 27.9727V28.3477C135.32 28.8633 135.355 29.3555 135.425 29.8242C135.503 30.293 135.636 30.7148 135.823 31.0898C136.019 31.457 136.288 31.75 136.632 31.9688C136.984 32.1875 137.429 32.2969 137.968 32.2969ZM156.11 21.8203V34.5H153.005V21.8203H156.11ZM154.704 27.3398V29.7773C154.407 29.918 154.048 30.0508 153.626 30.1758C153.212 30.293 152.774 30.3867 152.313 30.457C151.86 30.5273 151.419 30.5625 150.989 30.5625C149.825 30.5625 148.821 30.3906 147.977 30.0469C147.141 29.7031 146.497 29.1758 146.044 28.4648C145.591 27.7461 145.364 26.8281 145.364 25.7109V21.8086H148.458V25.7109C148.458 26.3125 148.548 26.7891 148.727 27.1406C148.907 27.4922 149.184 27.7422 149.559 27.8906C149.934 28.0391 150.411 28.1133 150.989 28.1133C151.434 28.1133 151.86 28.082 152.266 28.0195C152.673 27.9492 153.075 27.8594 153.473 27.75C153.88 27.6328 154.29 27.4961 154.704 27.3398ZM162.452 30.082L167.069 21.8203H170.174V34.5H167.069V26.2266L162.452 34.5H159.346V21.8203H162.452V30.082ZM179.539 21.8203V34.5H176.434V21.8203H179.539ZM183.664 21.8203V24.2344H172.379V21.8203H183.664ZM192.677 31.8047V25.957C192.677 25.5273 192.603 25.1562 192.455 24.8438C192.306 24.5312 192.08 24.2891 191.775 24.1172C191.47 23.9453 191.084 23.8594 190.615 23.8594C190.201 23.8594 189.838 23.9297 189.525 24.0703C189.22 24.2109 188.986 24.4102 188.822 24.668C188.658 24.918 188.576 25.207 188.576 25.5352H185.47C185.47 25.0117 185.595 24.5156 185.845 24.0469C186.095 23.5703 186.451 23.1484 186.912 22.7812C187.38 22.4062 187.939 22.1133 188.588 21.9023C189.244 21.6914 189.978 21.5859 190.791 21.5859C191.752 21.5859 192.607 21.75 193.357 22.0781C194.115 22.3984 194.709 22.8828 195.138 23.5312C195.576 24.1797 195.795 24.9961 195.795 25.9805V31.5117C195.795 32.1445 195.834 32.6875 195.912 33.1406C195.998 33.5859 196.123 33.9727 196.287 34.3008V34.5H193.134C192.986 34.1797 192.873 33.7734 192.795 33.2812C192.716 32.7812 192.677 32.2891 192.677 31.8047ZM193.111 26.7773L193.134 28.6172H191.177C190.693 28.6172 190.267 28.668 189.9 28.7695C189.533 28.8633 189.232 29.0039 188.998 29.1914C188.763 29.3711 188.588 29.5898 188.47 29.8477C188.353 30.0977 188.295 30.3828 188.295 30.7031C188.295 31.0156 188.365 31.2969 188.505 31.5469C188.654 31.7969 188.865 31.9961 189.138 32.1445C189.42 32.2852 189.748 32.3555 190.123 32.3555C190.67 32.3555 191.146 32.2461 191.552 32.0273C191.959 31.8008 192.275 31.5273 192.502 31.207C192.728 30.8867 192.849 30.582 192.865 30.293L193.755 31.6289C193.646 31.9492 193.482 32.2891 193.263 32.6484C193.045 33.0078 192.763 33.3438 192.42 33.6562C192.076 33.9688 191.662 34.2266 191.177 34.4297C190.693 34.6328 190.13 34.7344 189.49 34.7344C188.67 34.7344 187.935 34.5703 187.287 34.2422C186.638 33.9141 186.127 33.4648 185.752 32.8945C185.377 32.3242 185.189 31.6758 185.189 30.9492C185.189 30.2773 185.314 29.6836 185.564 29.168C185.814 28.6523 186.185 28.2188 186.677 27.8672C187.17 27.5078 187.779 27.2383 188.505 27.0586C189.24 26.8711 190.08 26.7773 191.025 26.7773H193.111ZM204.948 21.8203V34.5H201.843V21.8203H204.948ZM209.073 21.8203V24.2344H197.788V21.8203H209.073ZM213.493 25.7227H217.196C218.321 25.7227 219.278 25.9102 220.067 26.2852C220.864 26.6523 221.47 27.168 221.884 27.832C222.305 28.4883 222.516 29.25 222.516 30.1172C222.516 30.7422 222.395 31.3242 222.153 31.8633C221.919 32.3945 221.575 32.8594 221.122 33.2578C220.669 33.6484 220.11 33.9531 219.446 34.1719C218.79 34.3906 218.04 34.5 217.196 34.5H211.501V21.8203H214.606V32.0742H217.196C217.735 32.0742 218.165 31.9844 218.485 31.8047C218.813 31.6172 219.048 31.3789 219.188 31.0898C219.337 30.793 219.411 30.4766 219.411 30.1406C219.411 29.7969 219.337 29.4766 219.188 29.1797C219.048 28.875 218.813 28.6289 218.485 28.4414C218.165 28.2539 217.735 28.1602 217.196 28.1602H213.493V25.7227ZM236.582 32.2969C237.02 32.2969 237.41 32.2109 237.754 32.0391C238.098 31.8672 238.371 31.625 238.574 31.3125C238.785 31 238.898 30.6367 238.914 30.2227H241.832C241.816 31.082 241.574 31.8516 241.105 32.5312C240.637 33.2109 240.012 33.75 239.23 34.1484C238.457 34.5391 237.59 34.7344 236.629 34.7344C235.652 34.7344 234.801 34.5703 234.074 34.2422C233.348 33.9141 232.742 33.457 232.258 32.8711C231.781 32.2852 231.422 31.6055 231.18 30.832C230.945 30.0586 230.828 29.2305 230.828 28.3477V27.9727C230.828 27.0898 230.945 26.2617 231.18 25.4883C231.422 24.7148 231.781 24.0352 232.258 23.4492C232.742 22.8633 233.348 22.4062 234.074 22.0781C234.801 21.75 235.648 21.5859 236.617 21.5859C237.641 21.5859 238.539 21.7852 239.313 22.1836C240.094 22.582 240.703 23.1445 241.141 23.8711C241.586 24.5977 241.816 25.4531 241.832 26.4375H238.914C238.898 25.9844 238.797 25.5781 238.609 25.2188C238.422 24.8594 238.156 24.5703 237.813 24.3516C237.469 24.1328 237.051 24.0234 236.559 24.0234C236.035 24.0234 235.598 24.1328 235.246 24.3516C234.902 24.5703 234.633 24.8711 234.438 25.2539C234.25 25.6289 234.117 26.0508 234.039 26.5195C233.969 26.9805 233.934 27.4648 233.934 27.9727V28.3477C233.934 28.8633 233.969 29.3555 234.039 29.8242C234.117 30.293 234.25 30.7148 234.438 31.0898C234.633 31.457 234.902 31.75 235.246 31.9688C235.598 32.1875 236.043 32.2969 236.582 32.2969ZM250.447 21.8203V34.5H247.341V21.8203H250.447ZM254.572 21.8203V24.2344H243.287V21.8203H254.572ZM263.585 31.8047V25.957C263.585 25.5273 263.511 25.1562 263.363 24.8438C263.214 24.5312 262.988 24.2891 262.683 24.1172C262.378 23.9453 261.991 23.8594 261.523 23.8594C261.109 23.8594 260.745 23.9297 260.433 24.0703C260.128 24.2109 259.894 24.4102 259.73 24.668C259.566 24.918 259.484 25.207 259.484 25.5352H256.378C256.378 25.0117 256.503 24.5156 256.753 24.0469C257.003 23.5703 257.359 23.1484 257.82 22.7812C258.288 22.4062 258.847 22.1133 259.495 21.9023C260.152 21.6914 260.886 21.5859 261.698 21.5859C262.659 21.5859 263.515 21.75 264.265 22.0781C265.023 22.3984 265.616 22.8828 266.046 23.5312C266.484 24.1797 266.702 24.9961 266.702 25.9805V31.5117C266.702 32.1445 266.741 32.6875 266.82 33.1406C266.905 33.5859 267.03 33.9727 267.195 34.3008V34.5H264.042C263.894 34.1797 263.78 33.7734 263.702 33.2812C263.624 32.7812 263.585 32.2891 263.585 31.8047ZM264.019 26.7773L264.042 28.6172H262.085C261.601 28.6172 261.175 28.668 260.808 28.7695C260.441 28.8633 260.14 29.0039 259.905 29.1914C259.671 29.3711 259.495 29.5898 259.378 29.8477C259.261 30.0977 259.202 30.3828 259.202 30.7031C259.202 31.0156 259.273 31.2969 259.413 31.5469C259.562 31.7969 259.773 31.9961 260.046 32.1445C260.327 32.2852 260.655 32.3555 261.03 32.3555C261.577 32.3555 262.054 32.2461 262.46 32.0273C262.866 31.8008 263.183 31.5273 263.409 31.207C263.636 30.8867 263.757 30.582 263.773 30.293L264.663 31.6289C264.554 31.9492 264.39 32.2891 264.171 32.6484C263.952 33.0078 263.671 33.3438 263.327 33.6562C262.984 33.9688 262.57 34.2266 262.085 34.4297C261.601 34.6328 261.038 34.7344 260.398 34.7344C259.577 34.7344 258.843 34.5703 258.195 34.2422C257.546 33.9141 257.034 33.4648 256.659 32.8945C256.284 32.3242 256.097 31.6758 256.097 30.9492C256.097 30.2773 256.222 29.6836 256.472 29.168C256.722 28.6523 257.093 28.2188 257.585 27.8672C258.077 27.5078 258.687 27.2383 259.413 27.0586C260.148 26.8711 260.988 26.7773 261.933 26.7773H264.019ZM276.126 29.1328H272.106L272.083 27.0352H275.388C275.88 27.0352 276.282 26.9844 276.595 26.8828C276.907 26.7812 277.138 26.6289 277.286 26.4258C277.442 26.2227 277.52 25.9766 277.52 25.6875C277.52 25.4375 277.473 25.2227 277.38 25.043C277.286 24.8555 277.145 24.7031 276.958 24.5859C276.778 24.4688 276.548 24.3828 276.266 24.3281C275.993 24.2656 275.673 24.2344 275.305 24.2344H273.208V34.5H270.102V21.8203H275.305C276.126 21.8203 276.864 21.8945 277.52 22.043C278.177 22.1836 278.735 22.3984 279.196 22.6875C279.657 22.9766 280.009 23.3438 280.251 23.7891C280.501 24.2266 280.626 24.7422 280.626 25.3359C280.626 25.7266 280.54 26.0938 280.368 26.4375C280.196 26.7812 279.942 27.0859 279.606 27.3516C279.27 27.6172 278.856 27.8359 278.364 28.0078C277.872 28.1719 277.309 28.2734 276.677 28.3125L276.126 29.1328ZM276.126 34.5H271.274L272.423 32.0859H276.126C276.579 32.0859 276.954 32.0312 277.251 31.9219C277.548 31.8047 277.766 31.6367 277.907 31.418C278.055 31.1992 278.13 30.9336 278.13 30.6211C278.13 30.3164 278.059 30.0547 277.919 29.8359C277.786 29.6094 277.571 29.4375 277.274 29.3203C276.985 29.1953 276.602 29.1328 276.126 29.1328H272.927L272.95 27.0352H276.665L277.485 27.8672C278.329 27.9219 279.028 28.0938 279.583 28.3828C280.138 28.6641 280.552 29.0234 280.825 29.4609C281.098 29.8906 281.235 30.3633 281.235 30.8789C281.235 31.4805 281.122 32.0078 280.895 32.4609C280.669 32.9141 280.337 33.293 279.899 33.5977C279.462 33.8945 278.927 34.1211 278.294 34.2773C277.661 34.4258 276.938 34.5 276.126 34.5ZM287.19 21.8203V34.5H284.096V21.8203H287.19ZM295.452 21.8203L289.862 29.6016H286.569L286.182 26.7656H288.467L291.549 21.8203H295.452ZM291.737 34.5L288.268 29.0625L290.846 27.4453L295.85 34.5H291.737ZM301.383 33.0938L304.781 21.8203H308.098L303.012 36.4219C302.895 36.7344 302.742 37.0742 302.555 37.4414C302.375 37.8086 302.133 38.1562 301.828 38.4844C301.523 38.8203 301.141 39.0938 300.68 39.3047C300.227 39.5156 299.676 39.6211 299.027 39.6211C298.746 39.6211 298.496 39.6016 298.277 39.5625C298.059 39.5234 297.828 39.4727 297.586 39.4102V37.0898C297.664 37.0977 297.754 37.1016 297.855 37.1016C297.965 37.1094 298.059 37.1133 298.137 37.1133C298.59 37.1133 298.965 37.0586 299.262 36.9492C299.559 36.8477 299.797 36.6797 299.977 36.4453C300.164 36.2188 300.32 35.9219 300.445 35.5547L301.383 33.0938ZM299.707 21.8203L302.578 31.1602L303.082 34.4297L300.949 34.8164L296.367 21.8203H299.707Z" fill="white"/>
</svg>
