<svg width="387" height="57" viewBox="0 0 387 57" fill="none" xmlns="http://www.w3.org/2000/svg">
<path d="M0.252045 15.5C0.252045 7.21573 6.96777 0.5 15.252 0.5H371.36C379.645 0.5 386.36 7.21573 386.36 15.5V41.5C386.36 49.7843 379.645 56.5 371.36 56.5H15.252C6.96776 56.5 0.252045 49.7843 0.252045 41.5V15.5Z" fill="#2C2929"/>
<path d="M71.1343 19.4375V36.5H67.9117V21.9805H60.6929V36.5H57.4702V19.4375H71.1343ZM74.0656 30.2891V30.043C74.0656 29.1133 74.1984 28.2578 74.464 27.4766C74.7296 26.6875 75.1163 26.0039 75.6242 25.4258C76.132 24.8477 76.7531 24.3984 77.4874 24.0781C78.2218 23.75 79.0577 23.5859 79.9952 23.5859C80.9484 23.5859 81.7921 23.75 82.5265 24.0781C83.2687 24.3984 83.8937 24.8477 84.4015 25.4258C84.9093 26.0039 85.296 26.6875 85.5617 27.4766C85.8273 28.2578 85.9601 29.1133 85.9601 30.043V30.2891C85.9601 31.2109 85.8273 32.0664 85.5617 32.8555C85.296 33.6367 84.9093 34.3203 84.4015 34.9062C83.8937 35.4844 83.2726 35.9336 82.5382 36.2539C81.8038 36.5742 80.964 36.7344 80.0187 36.7344C79.0812 36.7344 78.2413 36.5742 77.4992 36.2539C76.757 35.9336 76.132 35.4844 75.6242 34.9062C75.1163 34.3203 74.7296 33.6367 74.464 32.8555C74.1984 32.0664 74.0656 31.2109 74.0656 30.2891ZM77.1593 30.043V30.2891C77.1593 30.8438 77.214 31.3633 77.3234 31.8477C77.4327 32.332 77.6007 32.7578 77.8273 33.125C78.0538 33.4922 78.3468 33.7812 78.7062 33.9922C79.0734 34.1953 79.5109 34.2969 80.0187 34.2969C80.5187 34.2969 80.9484 34.1953 81.3077 33.9922C81.6671 33.7812 81.9601 33.4922 82.1867 33.125C82.421 32.7578 82.5929 32.332 82.7023 31.8477C82.8117 31.3633 82.8663 30.8438 82.8663 30.2891V30.043C82.8663 29.4961 82.8117 28.9844 82.7023 28.5078C82.5929 28.0234 82.421 27.5977 82.1867 27.2305C81.9601 26.8555 81.6632 26.5625 81.296 26.3516C80.9367 26.1328 80.5031 26.0234 79.9952 26.0234C79.4952 26.0234 79.0656 26.1328 78.7062 26.3516C78.3468 26.5625 78.0538 26.8555 77.8273 27.2305C77.6007 27.5977 77.4327 28.0234 77.3234 28.5078C77.214 28.9844 77.1593 29.4961 77.1593 30.043ZM96.9421 23.8203V26.2695H90.7312V23.8203H96.9421ZM99.2742 23.8203V36.5H96.1804V23.8203H99.2742ZM89.9577 23.8203H93.0163L92.6765 30.1484C92.6218 31.0781 92.5242 31.8945 92.3835 32.5977C92.2429 33.293 92.0554 33.8906 91.821 34.3906C91.5867 34.8828 91.3015 35.2852 90.9656 35.5977C90.6296 35.9102 90.239 36.1406 89.7937 36.2891C89.3562 36.4297 88.864 36.5 88.3171 36.5H87.3679L87.3327 34.0039L87.7781 33.9688C88.0515 33.9453 88.2859 33.8711 88.4812 33.7461C88.6843 33.6211 88.8562 33.4414 88.9968 33.207C89.1452 32.9727 89.2663 32.6719 89.3601 32.3047C89.4617 31.9297 89.5398 31.4922 89.5945 30.9922C89.657 30.4844 89.6999 29.8984 89.7234 29.2344L89.9577 23.8203ZM106.225 35.0938L109.623 23.8203H112.94L107.854 38.4219C107.737 38.7344 107.584 39.0742 107.397 39.4414C107.217 39.8086 106.975 40.1562 106.67 40.4844C106.366 40.8203 105.983 41.0938 105.522 41.3047C105.069 41.5156 104.518 41.6211 103.869 41.6211C103.588 41.6211 103.338 41.6016 103.119 41.5625C102.901 41.5234 102.67 41.4727 102.428 41.4102V39.0898C102.506 39.0977 102.596 39.1016 102.698 39.1016C102.807 39.1094 102.901 39.1133 102.979 39.1133C103.432 39.1133 103.807 39.0586 104.104 38.9492C104.401 38.8477 104.639 38.6797 104.819 38.4453C105.006 38.2188 105.162 37.9219 105.287 37.5547L106.225 35.0938ZM104.549 23.8203L107.42 33.1602L107.924 36.4297L105.791 36.8164L101.209 23.8203H104.549ZM125.269 23.8203V36.5H122.164V23.8203H125.269ZM123.863 29.3398V31.7773C123.566 31.918 123.207 32.0508 122.785 32.1758C122.371 32.293 121.934 32.3867 121.473 32.457C121.019 32.5273 120.578 32.5625 120.148 32.5625C118.984 32.5625 117.98 32.3906 117.137 32.0469C116.301 31.7031 115.656 31.1758 115.203 30.4648C114.75 29.7461 114.523 28.8281 114.523 27.7109V23.8086H117.617V27.7109C117.617 28.3125 117.707 28.7891 117.887 29.1406C118.066 29.4922 118.344 29.7422 118.719 29.8906C119.094 30.0391 119.57 30.1133 120.148 30.1133C120.594 30.1133 121.019 30.082 121.426 30.0195C121.832 29.9492 122.234 29.8594 122.633 29.75C123.039 29.6328 123.449 29.4961 123.863 29.3398ZM131.611 32.082L136.228 23.8203H139.334V36.5H136.228V28.2266L131.611 36.5H128.505V23.8203H131.611V32.082ZM148.698 23.8203V36.5H145.593V23.8203H148.698ZM152.823 23.8203V26.2344H141.538V23.8203H152.823ZM157.243 27.7227H160.946C162.071 27.7227 163.028 27.9102 163.817 28.2852C164.614 28.6523 165.219 29.168 165.634 29.832C166.055 30.4883 166.266 31.25 166.266 32.1172C166.266 32.7422 166.145 33.3242 165.903 33.8633C165.669 34.3945 165.325 34.8594 164.872 35.2578C164.419 35.6484 163.86 35.9531 163.196 36.1719C162.54 36.3906 161.79 36.5 160.946 36.5H155.251V23.8203H158.356V34.0742H160.946C161.485 34.0742 161.915 33.9844 162.235 33.8047C162.563 33.6172 162.798 33.3789 162.938 33.0898C163.087 32.793 163.161 32.4766 163.161 32.1406C163.161 31.7969 163.087 31.4766 162.938 31.1797C162.798 30.875 162.563 30.6289 162.235 30.4414C161.915 30.2539 161.485 30.1602 160.946 30.1602H157.243V27.7227ZM178.434 23.8203V36.5H175.34V23.8203H178.434ZM186.695 23.8203L181.105 31.6016H177.812L177.426 28.7656H179.711L182.793 23.8203H186.695ZM182.98 36.5L179.512 31.0625L182.09 29.4453L187.094 36.5H182.98ZM187.892 30.2891V30.043C187.892 29.1133 188.025 28.2578 188.291 27.4766C188.556 26.6875 188.943 26.0039 189.451 25.4258C189.959 24.8477 190.58 24.3984 191.314 24.0781C192.048 23.75 192.884 23.5859 193.822 23.5859C194.775 23.5859 195.619 23.75 196.353 24.0781C197.095 24.3984 197.72 24.8477 198.228 25.4258C198.736 26.0039 199.123 26.6875 199.388 27.4766C199.654 28.2578 199.787 29.1133 199.787 30.043V30.2891C199.787 31.2109 199.654 32.0664 199.388 32.8555C199.123 33.6367 198.736 34.3203 198.228 34.9062C197.72 35.4844 197.099 35.9336 196.365 36.2539C195.63 36.5742 194.791 36.7344 193.845 36.7344C192.908 36.7344 192.068 36.5742 191.326 36.2539C190.584 35.9336 189.959 35.4844 189.451 34.9062C188.943 34.3203 188.556 33.6367 188.291 32.8555C188.025 32.0664 187.892 31.2109 187.892 30.2891ZM190.986 30.043V30.2891C190.986 30.8438 191.041 31.3633 191.15 31.8477C191.259 32.332 191.427 32.7578 191.654 33.125C191.88 33.4922 192.173 33.7812 192.533 33.9922C192.9 34.1953 193.337 34.2969 193.845 34.2969C194.345 34.2969 194.775 34.1953 195.134 33.9922C195.494 33.7812 195.787 33.4922 196.013 33.125C196.248 32.7578 196.419 32.332 196.529 31.8477C196.638 31.3633 196.693 30.8438 196.693 30.2891V30.043C196.693 29.4961 196.638 28.9844 196.529 28.5078C196.419 28.0234 196.248 27.5977 196.013 27.2305C195.787 26.8555 195.49 26.5625 195.123 26.3516C194.763 26.1328 194.33 26.0234 193.822 26.0234C193.322 26.0234 192.892 26.1328 192.533 26.3516C192.173 26.5625 191.88 26.8555 191.654 27.2305C191.427 27.5977 191.259 28.0234 191.15 28.5078C191.041 28.9844 190.986 29.4961 190.986 30.043ZM211.097 29.0234V31.4492H204.593V29.0234H211.097ZM205.566 23.8203V36.5H202.46V23.8203H205.566ZM213.265 23.8203V36.5H210.148V23.8203H213.265ZM221.68 34.2969C222.118 34.2969 222.509 34.2109 222.852 34.0391C223.196 33.8672 223.469 33.625 223.673 33.3125C223.884 33 223.997 32.6367 224.012 32.2227H226.93C226.915 33.082 226.673 33.8516 226.204 34.5312C225.735 35.2109 225.11 35.75 224.329 36.1484C223.555 36.5391 222.688 36.7344 221.727 36.7344C220.751 36.7344 219.899 36.5703 219.173 36.2422C218.446 35.9141 217.841 35.457 217.356 34.8711C216.88 34.2852 216.52 33.6055 216.278 32.832C216.044 32.0586 215.926 31.2305 215.926 30.3477V29.9727C215.926 29.0898 216.044 28.2617 216.278 27.4883C216.52 26.7148 216.88 26.0352 217.356 25.4492C217.841 24.8633 218.446 24.4062 219.173 24.0781C219.899 23.75 220.747 23.5859 221.716 23.5859C222.739 23.5859 223.637 23.7852 224.411 24.1836C225.192 24.582 225.801 25.1445 226.239 25.8711C226.684 26.5977 226.915 27.4531 226.93 28.4375H224.012C223.997 27.9844 223.895 27.5781 223.708 27.2188C223.52 26.8594 223.255 26.5703 222.911 26.3516C222.567 26.1328 222.149 26.0234 221.657 26.0234C221.134 26.0234 220.696 26.1328 220.344 26.3516C220.001 26.5703 219.731 26.8711 219.536 27.2539C219.348 27.6289 219.216 28.0508 219.137 28.5195C219.067 28.9805 219.032 29.4648 219.032 29.9727V30.3477C219.032 30.8633 219.067 31.3555 219.137 31.8242C219.216 32.293 219.348 32.7148 219.536 33.0898C219.731 33.457 220.001 33.75 220.344 33.9688C220.696 34.1875 221.141 34.2969 221.68 34.2969ZM233.108 35.0938L236.506 23.8203H239.823L234.737 38.4219C234.619 38.7344 234.467 39.0742 234.28 39.4414C234.1 39.8086 233.858 40.1562 233.553 40.4844C233.248 40.8203 232.866 41.0938 232.405 41.3047C231.951 41.5156 231.401 41.6211 230.752 41.6211C230.471 41.6211 230.221 41.6016 230.002 41.5625C229.784 41.5234 229.553 41.4727 229.311 41.4102V39.0898C229.389 39.0977 229.479 39.1016 229.58 39.1016C229.69 39.1094 229.784 39.1133 229.862 39.1133C230.315 39.1133 230.69 39.0586 230.987 38.9492C231.284 38.8477 231.522 38.6797 231.701 38.4453C231.889 38.2188 232.045 37.9219 232.17 37.5547L233.108 35.0938ZM231.432 23.8203L234.303 33.1602L234.807 36.4297L232.674 36.8164L228.092 23.8203H231.432ZM249.75 23.8203V26.2695H243.539V23.8203H249.75ZM252.082 23.8203V36.5H248.988V23.8203H252.082ZM242.766 23.8203H245.824L245.484 30.1484C245.43 31.0781 245.332 31.8945 245.191 32.5977C245.051 33.293 244.863 33.8906 244.629 34.3906C244.394 34.8828 244.109 35.2852 243.773 35.5977C243.437 35.9102 243.047 36.1406 242.602 36.2891C242.164 36.4297 241.672 36.5 241.125 36.5H240.176L240.141 34.0039L240.586 33.9688C240.859 33.9453 241.094 33.8711 241.289 33.7461C241.492 33.6211 241.664 33.4414 241.805 33.207C241.953 32.9727 242.074 32.6719 242.168 32.3047C242.269 31.9297 242.348 31.4922 242.402 30.9922C242.465 30.4844 242.508 29.8984 242.531 29.2344L242.766 23.8203ZM257.521 27.7227H261.224C262.349 27.7227 263.306 27.9102 264.095 28.2852C264.892 28.6523 265.498 29.168 265.912 29.832C266.334 30.4883 266.544 31.25 266.544 32.1172C266.544 32.7422 266.423 33.3242 266.181 33.8633C265.947 34.3945 265.603 34.8594 265.15 35.2578C264.697 35.6484 264.138 35.9531 263.474 36.1719C262.818 36.3906 262.068 36.5 261.224 36.5H255.529V23.8203H258.634V34.0742H261.224C261.763 34.0742 262.193 33.9844 262.513 33.8047C262.841 33.6172 263.076 33.3789 263.216 33.0898C263.365 32.793 263.439 32.4766 263.439 32.1406C263.439 31.7969 263.365 31.4766 263.216 31.1797C263.076 30.875 262.841 30.6289 262.513 30.4414C262.193 30.2539 261.763 30.1602 261.224 30.1602H257.521V27.7227ZM273.87 23.8203V36.5H270.765V23.8203H273.87ZM277.995 23.8203V26.2344H266.71V23.8203H277.995ZM287.009 33.8047V27.957C287.009 27.5273 286.934 27.1562 286.786 26.8438C286.637 26.5312 286.411 26.2891 286.106 26.1172C285.801 25.9453 285.415 25.8594 284.946 25.8594C284.532 25.8594 284.169 25.9297 283.856 26.0703C283.551 26.2109 283.317 26.4102 283.153 26.668C282.989 26.918 282.907 27.207 282.907 27.5352H279.801C279.801 27.0117 279.926 26.5156 280.176 26.0469C280.426 25.5703 280.782 25.1484 281.243 24.7812C281.712 24.4062 282.27 24.1133 282.919 23.9023C283.575 23.6914 284.309 23.5859 285.122 23.5859C286.083 23.5859 286.938 23.75 287.688 24.0781C288.446 24.3984 289.04 24.8828 289.469 25.5312C289.907 26.1797 290.126 26.9961 290.126 27.9805V33.5117C290.126 34.1445 290.165 34.6875 290.243 35.1406C290.329 35.5859 290.454 35.9727 290.618 36.3008V36.5H287.466C287.317 36.1797 287.204 35.7734 287.126 35.2812C287.048 34.7812 287.009 34.2891 287.009 33.8047ZM287.442 28.7773L287.466 30.6172H285.509C285.024 30.6172 284.598 30.668 284.231 30.7695C283.864 30.8633 283.563 31.0039 283.329 31.1914C283.094 31.3711 282.919 31.5898 282.801 31.8477C282.684 32.0977 282.626 32.3828 282.626 32.7031C282.626 33.0156 282.696 33.2969 282.837 33.5469C282.985 33.7969 283.196 33.9961 283.469 34.1445C283.751 34.2852 284.079 34.3555 284.454 34.3555C285.001 34.3555 285.477 34.2461 285.884 34.0273C286.29 33.8008 286.606 33.5273 286.833 33.207C287.059 32.8867 287.18 32.582 287.196 32.293L288.087 33.6289C287.977 33.9492 287.813 34.2891 287.594 34.6484C287.376 35.0078 287.094 35.3438 286.751 35.6562C286.407 35.9688 285.993 36.2266 285.509 36.4297C285.024 36.6328 284.462 36.7344 283.821 36.7344C283.001 36.7344 282.266 36.5703 281.618 36.2422C280.969 35.9141 280.458 35.4648 280.083 34.8945C279.708 34.3242 279.52 33.6758 279.52 32.9492C279.52 32.2773 279.645 31.6836 279.895 31.168C280.145 30.6523 280.516 30.2188 281.009 29.8672C281.501 29.5078 282.11 29.2383 282.837 29.0586C283.571 28.8711 284.411 28.7773 285.356 28.7773H287.442ZM293.338 36.5V23.8203H296.444V34.0625H301.049V23.8203H304.166V36.5H293.338ZM305.971 34.0742L305.748 40.2617H302.877V36.5H301.412V34.0742H305.971ZM311.375 32.082L315.992 23.8203H319.098V36.5H315.992V28.2266L311.375 36.5H308.269V23.8203H311.375V32.082ZM329.857 28.8359V31.2852H323.037V28.8359H329.857ZM325.662 23.8203V36.5H322.556V23.8203H325.662ZM327.677 30.2891V30.043C327.677 29.1133 327.81 28.2578 328.076 27.4766C328.341 26.6875 328.728 26.0039 329.236 25.4258C329.744 24.8477 330.365 24.3984 331.099 24.0781C331.834 23.75 332.669 23.5859 333.607 23.5859C334.56 23.5859 335.404 23.75 336.138 24.0781C336.88 24.3984 337.505 24.8477 338.013 25.4258C338.529 26.0039 338.916 26.6875 339.173 27.4766C339.439 28.2578 339.572 29.1133 339.572 30.043V30.2891C339.572 31.2109 339.439 32.0664 339.173 32.8555C338.916 33.6367 338.533 34.3203 338.025 34.9062C337.517 35.4844 336.892 35.9336 336.15 36.2539C335.416 36.5742 334.576 36.7344 333.63 36.7344C332.685 36.7344 331.845 36.5742 331.111 36.2539C330.376 35.9336 329.751 35.4844 329.236 34.9062C328.728 34.3203 328.341 33.6367 328.076 32.8555C327.81 32.0664 327.677 31.2109 327.677 30.2891ZM330.771 30.043V30.2891C330.771 30.8438 330.826 31.3633 330.935 31.8477C331.044 32.332 331.212 32.7578 331.439 33.125C331.673 33.4922 331.97 33.7812 332.33 33.9922C332.689 34.1953 333.123 34.2969 333.63 34.2969C334.138 34.2969 334.572 34.1953 334.931 33.9922C335.291 33.7812 335.584 33.4922 335.81 33.125C336.037 32.7578 336.205 32.332 336.314 31.8477C336.423 31.3633 336.478 30.8438 336.478 30.2891V30.043C336.478 29.4961 336.423 28.9844 336.314 28.5078C336.205 28.0234 336.033 27.5977 335.798 27.2305C335.572 26.8555 335.275 26.5625 334.908 26.3516C334.548 26.1328 334.115 26.0234 333.607 26.0234C333.107 26.0234 332.677 26.1328 332.318 26.3516C331.966 26.5625 331.673 26.8555 331.439 27.2305C331.212 27.5977 331.044 28.0234 330.935 28.5078C330.826 28.9844 330.771 29.4961 330.771 30.043Z" fill="white"/>
</svg>
