<svg width="283" height="60" viewBox="0 0 283 60" fill="none" xmlns="http://www.w3.org/2000/svg">
<rect x="1" y="1" width="281" height="58" rx="16" fill="#040404" stroke="white" stroke-width="2"/>
<path d="M47.5703 36.3706C45.1641 36.3706 43.2031 35.5893 41.6875 34.0268C40.1719 32.4565 39.4141 30.4136 39.4141 27.8979C39.4141 25.2417 40.1836 23.0932 41.7227 21.4526C43.2617 19.812 45.3008 18.9917 47.8398 18.9917C50.2383 18.9917 52.1758 19.7768 53.6523 21.3471C55.1367 22.9175 55.8789 24.9878 55.8789 27.5581C55.8789 30.1987 55.1094 32.3276 53.5703 33.9448C52.0391 35.562 50.0391 36.3706 47.5703 36.3706ZM47.7344 22.2495C46.4062 22.2495 45.3516 22.7495 44.5703 23.7495C43.7891 24.7417 43.3984 26.0581 43.3984 27.6987C43.3984 29.3628 43.7891 30.6792 44.5703 31.6479C45.3516 32.6167 46.375 33.1011 47.6406 33.1011C48.9453 33.1011 49.9805 32.6323 50.7461 31.6948C51.5117 30.7495 51.8945 29.4409 51.8945 27.769C51.8945 26.0268 51.5234 24.6714 50.7812 23.7026C50.0391 22.7339 49.0234 22.2495 47.7344 22.2495ZM68.4102 35.644C67.5742 36.1284 66.3672 36.3706 64.7891 36.3706C62.9453 36.3706 61.4531 35.812 60.3125 34.6948C59.1719 33.5776 58.6016 32.1362 58.6016 30.3706C58.6016 28.3315 59.2109 26.7261 60.4297 25.5542C61.6562 24.3745 63.293 23.7846 65.3398 23.7846C66.7539 23.7846 67.7773 23.9721 68.4102 24.3471V27.4878C67.6367 26.9096 66.7734 26.6206 65.8203 26.6206C64.7578 26.6206 63.9141 26.9331 63.2891 27.5581C62.6719 28.1753 62.3633 29.0307 62.3633 30.1245C62.3633 31.187 62.6602 32.0229 63.2539 32.6323C63.8477 33.2339 64.6641 33.5346 65.7031 33.5346C66.625 33.5346 67.5273 33.2456 68.4102 32.6675V35.644ZM80.8242 26.8901H77.6133V36.0776H73.8867V26.8901H70.6523V24.0776H80.8242V26.8901ZM93.7539 36.0776H90.25V34.355H90.2031C89.3984 35.6987 88.207 36.3706 86.6289 36.3706C85.4648 36.3706 84.5469 36.0425 83.875 35.3862C83.2109 34.7221 82.8789 33.8393 82.8789 32.7378C82.8789 30.4096 84.2578 29.0659 87.0156 28.7065L90.2734 28.2729C90.2734 26.9604 89.5625 26.3042 88.1406 26.3042C86.7109 26.3042 85.3516 26.73 84.0625 27.5815V24.7925C84.5781 24.5268 85.2812 24.2925 86.1719 24.0893C87.0703 23.8862 87.8867 23.7846 88.6211 23.7846C92.043 23.7846 93.7539 25.4917 93.7539 28.9057V36.0776ZM90.2734 31.2026V30.394L88.0938 30.6753C86.8906 30.8315 86.2891 31.3745 86.2891 32.3042C86.2891 32.7261 86.4336 33.0737 86.7227 33.3471C87.0195 33.6128 87.418 33.7456 87.918 33.7456C88.6133 33.7456 89.1797 33.5073 89.6172 33.0307C90.0547 32.5464 90.2734 31.937 90.2734 31.2026ZM97.6836 36.0776V24.0776H104.387C107.246 24.0776 108.676 25.0542 108.676 27.0073C108.676 27.7026 108.449 28.2925 107.996 28.7768C107.551 29.2534 106.969 29.5659 106.25 29.7143C107.133 29.8237 107.824 30.1323 108.324 30.6401C108.832 31.1401 109.086 31.7534 109.086 32.48C109.086 33.5659 108.699 34.437 107.926 35.0932C107.152 35.7495 106.09 36.0776 104.738 36.0776H97.6836ZM101.387 26.3393V28.8589H103.203C104.328 28.8589 104.891 28.4175 104.891 27.5346C104.891 26.7378 104.359 26.3393 103.297 26.3393H101.387ZM101.387 31.0386V33.769H103.52C104.699 33.769 105.289 33.2925 105.289 32.3393C105.289 31.4721 104.684 31.0386 103.473 31.0386H101.387ZM124.535 36.0776H121.172V28.2261C120.867 28.8432 120.539 29.4136 120.188 29.937L116.109 36.0776H112.605V24.0776H115.992V31.6831C116.242 31.1596 116.516 30.6714 116.812 30.2182L120.891 24.0776H124.535V36.0776ZM137.652 26.8901H134.441V36.0776H130.715V26.8901H127.48V24.0776H137.652V26.8901ZM140.598 36.0776V24.0776H144.301V28.2729H147.465C148.824 28.2729 149.883 28.605 150.641 29.269C151.398 29.9253 151.777 30.8511 151.777 32.0464C151.777 33.2729 151.402 34.2534 150.652 34.9878C149.902 35.7143 148.863 36.0776 147.535 36.0776H140.598ZM144.301 30.605V33.7221H146.094C147.344 33.7221 147.969 33.187 147.969 32.1167C147.969 31.1089 147.359 30.605 146.141 30.605H144.301ZM162.039 35.7612V33.0776C163.195 33.6089 164.348 33.8745 165.496 33.8745C167.16 33.8745 167.992 33.4175 167.992 32.5034C167.992 31.5581 167.086 31.0854 165.273 31.0854H163.598V28.8003H165.297C166.852 28.8003 167.629 28.3471 167.629 27.4409C167.629 26.6362 166.934 26.2339 165.543 26.2339C164.496 26.2339 163.449 26.4682 162.402 26.937V24.394C163.809 23.9878 165.078 23.7846 166.211 23.7846C169.703 23.7846 171.449 24.8667 171.449 27.0307C171.449 28.5307 170.52 29.4565 168.66 29.8081V29.8667C169.645 29.9526 170.414 30.2495 170.969 30.7573C171.523 31.2651 171.801 31.9096 171.801 32.6909C171.801 35.105 169.844 36.312 165.93 36.312C164.438 36.312 163.141 36.1284 162.039 35.7612ZM185.176 36.0776H181.672V34.355H181.625C180.82 35.6987 179.629 36.3706 178.051 36.3706C176.887 36.3706 175.969 36.0425 175.297 35.3862C174.633 34.7221 174.301 33.8393 174.301 32.7378C174.301 30.4096 175.68 29.0659 178.438 28.7065L181.695 28.2729C181.695 26.9604 180.984 26.3042 179.562 26.3042C178.133 26.3042 176.773 26.73 175.484 27.5815V24.7925C176 24.5268 176.703 24.2925 177.594 24.0893C178.492 23.8862 179.309 23.7846 180.043 23.7846C183.465 23.7846 185.176 25.4917 185.176 28.9057V36.0776ZM181.695 31.2026V30.394L179.516 30.6753C178.312 30.8315 177.711 31.3745 177.711 32.3042C177.711 32.7261 177.855 33.0737 178.145 33.3471C178.441 33.6128 178.84 33.7456 179.34 33.7456C180.035 33.7456 180.602 33.5073 181.039 33.0307C181.477 32.5464 181.695 31.937 181.695 31.2026ZM199.641 36.0776H195.973V31.5893H195.129C194.48 31.5893 193.891 32.1636 193.359 33.312L192.082 36.0776H187.957L189.703 32.6675C190.234 31.6362 190.98 30.98 191.941 30.6987C189.941 30.355 188.941 29.3159 188.941 27.5815C188.941 25.2456 190.652 24.0776 194.074 24.0776H199.641V36.0776ZM195.973 29.3862V26.4331H194.578C193.297 26.4331 192.656 26.9214 192.656 27.8979C192.656 28.8901 193.297 29.3862 194.578 29.3862H195.973ZM203.746 36.0776V24.0776H210.449C213.309 24.0776 214.738 25.0542 214.738 27.0073C214.738 27.7026 214.512 28.2925 214.059 28.7768C213.613 29.2534 213.031 29.5659 212.312 29.7143C213.195 29.8237 213.887 30.1323 214.387 30.6401C214.895 31.1401 215.148 31.7534 215.148 32.48C215.148 33.5659 214.762 34.437 213.988 35.0932C213.215 35.7495 212.152 36.0776 210.801 36.0776H203.746ZM207.449 26.3393V28.8589H209.266C210.391 28.8589 210.953 28.4175 210.953 27.5346C210.953 26.7378 210.422 26.3393 209.359 26.3393H207.449ZM207.449 31.0386V33.769H209.582C210.762 33.769 211.352 33.2925 211.352 32.3393C211.352 31.4721 210.746 31.0386 209.535 31.0386H207.449ZM230.645 36.0776H226.203L222.418 30.2182H222.371V36.0776H218.668V24.0776H222.371V29.7143H222.418L226.109 24.0776H230.504L226.086 29.7846L230.645 36.0776ZM244.523 24.0776L239.648 37.0386C238.477 40.1557 236.711 41.7143 234.352 41.7143C233.453 41.7143 232.715 41.6128 232.137 41.4096V38.4565C232.629 38.7456 233.164 38.8901 233.742 38.8901C234.695 38.8901 235.359 38.4409 235.734 37.5425L236.367 36.0542L231.492 24.0776H235.594L237.832 31.3784C237.973 31.8315 238.082 32.3667 238.16 32.9839H238.207C238.277 32.5307 238.406 32.0034 238.594 31.4018L240.855 24.0776H244.523Z" fill="white"/>
</svg>
