<svg width="80" height="80" viewBox="0 0 80 80" fill="none" xmlns="http://www.w3.org/2000/svg">
<rect x="0.312195" y="0.0473633" width="79.1649" height="79.1649" rx="15" fill="white"/>
<mask id="path-2-inside-1_26_668" fill="white">
<path d="M51.7858 58.8049C55.863 59.6925 59.021 61.013 60.7979 62.5734C62.5748 64.1337 62.8775 65.8519 61.6615 67.4767C60.4456 69.1015 57.7749 70.5477 54.0401 71.6035C50.3052 72.6594 45.7023 73.2697 40.9045 73.3451C36.1067 73.4205 31.3658 72.957 27.3752 72.0225C23.3847 71.088 20.3539 69.7315 18.7262 68.1514C17.0985 66.5712 16.9593 64.8504 18.329 63.2407C19.6986 61.6309 22.5052 60.2166 26.3383 59.2047L31.931 61.7955C29.6793 62.39 28.0306 63.2208 27.226 64.1664C26.4214 65.1121 26.5032 66.1229 27.4593 67.0512C28.4155 67.9794 30.1959 68.7763 32.5402 69.3253C34.8844 69.8742 37.6694 70.1465 40.4878 70.1022C43.3063 70.0579 46.0103 69.6994 48.2043 69.0792C50.3983 68.4589 51.9672 67.6094 52.6815 66.6549C53.3958 65.7004 53.218 64.691 52.1741 63.7744C51.1303 62.8578 49.2751 62.0821 46.88 61.5606L51.7858 58.8049Z"/>
</mask>
<path d="M51.7858 58.8049C55.863 59.6925 59.021 61.013 60.7979 62.5734C62.5748 64.1337 62.8775 65.8519 61.6615 67.4767C60.4456 69.1015 57.7749 70.5477 54.0401 71.6035C50.3052 72.6594 45.7023 73.2697 40.9045 73.3451C36.1067 73.4205 31.3658 72.957 27.3752 72.0225C23.3847 71.088 20.3539 69.7315 18.7262 68.1514C17.0985 66.5712 16.9593 64.8504 18.329 63.2407C19.6986 61.6309 22.5052 60.2166 26.3383 59.2047L31.931 61.7955C29.6793 62.39 28.0306 63.2208 27.226 64.1664C26.4214 65.1121 26.5032 66.1229 27.4593 67.0512C28.4155 67.9794 30.1959 68.7763 32.5402 69.3253C34.8844 69.8742 37.6694 70.1465 40.4878 70.1022C43.3063 70.0579 46.0103 69.6994 48.2043 69.0792C50.3983 68.4589 51.9672 67.6094 52.6815 66.6549C53.3958 65.7004 53.218 64.691 52.1741 63.7744C51.1303 62.8578 49.2751 62.0821 46.88 61.5606L51.7858 58.8049Z" fill="black" stroke="black" stroke-width="2" mask="url(#path-2-inside-1_26_668)"/>
<path d="M58.6224 30.4089C58.6224 27.9495 58.138 25.5143 57.1968 23.2421C56.2557 20.97 54.8762 18.9054 53.1372 17.1664C51.3981 15.4274 49.3336 14.0479 47.0614 13.1067C44.7893 12.1656 42.354 11.6812 39.8946 11.6812C37.4353 11.6812 35 12.1656 32.7278 13.1067C30.4557 14.0479 28.3911 15.4274 26.6521 17.1664C24.9131 18.9054 23.5336 20.97 22.5924 23.2421C21.6513 25.5143 21.1669 27.9495 21.1669 30.4089" stroke="black" stroke-width="3"/>
<path d="M58.6224 30.4092C58.6224 44.7004 42.2077 59.1669 39.9273 59.1669C37.4259 59.1669 21.2172 44.8119 21.2172 30.4421" stroke="black" stroke-width="3"/>
<rect width="18.2823" height="18.2823" transform="translate(30.7787 21.2678)" fill="white"/>
<circle cx="39.9198" cy="30.409" r="8.14114" fill="black" stroke="black" stroke-width="2"/>
<circle cx="39.9198" cy="30.409" r="5.68809" fill="white" stroke="black"/>
</svg>
