<svg width="282" height="45" viewBox="0 0 282 45" fill="none" xmlns="http://www.w3.org/2000/svg">
<path d="M112.787 34.2986H115.899L118.81 27.376H128.049L130.983 34.2986H134.098L123.437 10.0682L112.787 34.2986ZM126.953 24.7389H119.932L123.437 16.4313L126.953 24.7389Z" fill="white"/>
<path d="M148.343 29.0896L140.806 11.2223H137.693L148.343 35.4527L158.995 11.2223H155.88L148.343 29.0896Z" fill="white"/>
<path d="M162.599 34.2986H165.712L168.623 27.376H177.861L180.786 34.2986H183.901L173.239 10.0682L162.599 34.2986ZM176.765 24.7389H169.744L173.249 16.4313L176.765 24.7389Z" fill="white"/>
<path d="M196.025 11.2223H193.239V34.2985H205.038V31.6614H196.025V11.2223Z" fill="white"/>
<path d="M232.204 14.3048C231.15 13.2352 229.898 12.3837 228.519 11.7983C225.55 10.5889 222.229 10.5889 219.26 11.7983C217.872 12.3806 216.612 13.2323 215.551 14.3048C214.497 15.3811 213.667 16.6591 213.111 18.0634C211.952 21.0806 211.952 24.424 213.111 27.4412C213.664 28.8556 214.496 30.1429 215.556 31.2255C216.615 32.2994 217.876 33.1514 219.264 33.732C222.234 34.9413 225.554 34.9413 228.524 33.732C229.904 33.1482 231.156 32.2965 232.209 31.2255C233.268 30.1459 234.099 28.8618 234.652 27.4506C235.807 24.4327 235.807 21.0906 234.652 18.0727C234.096 16.6641 233.263 15.3827 232.204 14.3048ZM231.435 27.4086C230.688 28.7657 229.594 29.8968 228.265 30.6845C226.937 31.4722 225.423 31.8876 223.881 31.8876C222.339 31.8876 220.826 31.4722 219.497 30.6845C218.169 29.8968 217.075 28.7657 216.328 27.4086C215.585 25.9732 215.197 24.3788 215.197 22.7605C215.197 21.1421 215.585 19.5477 216.328 18.1123C217.073 16.7527 218.166 15.619 219.495 14.8294C220.823 14.0399 222.338 13.6234 223.881 13.6234C225.424 13.6234 226.939 14.0399 228.268 14.8294C229.596 15.619 230.69 16.7527 231.435 18.1123C232.178 19.5477 232.566 21.1421 232.566 22.7605C232.566 24.3788 232.178 25.9732 231.435 27.4086Z" fill="white"/>
<path d="M256.651 22.5985V25.2332H264.3C264.111 26.1192 263.799 26.974 263.373 27.7724C262.948 28.5555 262.4 29.2642 261.75 29.8708C261.072 30.5006 260.275 30.9881 259.407 31.3048C258.424 31.6582 257.387 31.8312 256.343 31.8154C254.816 31.8396 253.311 31.448 251.987 30.6821C250.663 29.9162 249.569 28.8045 248.822 27.4646C248.058 26.0091 247.658 24.3879 247.658 22.7418C247.658 21.0958 248.058 19.4746 248.822 18.0191C249.573 16.6835 250.668 15.576 251.991 14.8129C253.315 14.0497 254.818 13.6592 256.343 13.6823C257.923 13.6436 259.488 14.0009 260.897 14.7222C262.15 15.3809 263.194 16.3802 263.91 17.6064L265.876 15.7924C265.249 14.747 264.432 13.8301 263.468 13.09C262.501 12.3564 261.415 11.7986 260.258 11.4416C258.988 11.0563 257.667 10.8669 256.341 10.8796C254.758 10.8646 253.188 11.1617 251.719 11.754C250.328 12.3152 249.066 13.1571 248.011 14.2279C246.953 15.3082 246.123 16.5921 245.57 18.0028C244.412 21.0603 244.412 24.4398 245.57 27.4972C246.124 28.9076 246.954 30.1915 248.011 31.2722C249.067 32.3415 250.329 33.1825 251.719 33.7437C253.188 34.336 254.758 34.6331 256.341 34.6181C257.95 34.6472 259.545 34.3151 261.011 33.6458C262.335 33.0227 263.509 32.1173 264.45 30.9924C265.398 29.8605 266.121 28.5571 266.583 27.1522C267.068 25.6799 267.312 24.1379 267.303 22.5868L256.651 22.5985Z" fill="white"/>
<path d="M53.1083 16.0698L54.3644 18.5646L60.5249 5.11108H56.353L46.6604 24.2725L47.8517 26.5855L53.1083 16.0698Z" fill="white"/>
<path d="M72.8087 34.723C71.6336 32.6525 63.1161 17.0375 60.022 11.3646L55.5627 20.9407L59.176 28.1128C60.4044 30.5913 61.5354 32.9486 62.2794 34.66C62.4258 34.9962 62.4971 35.3606 62.4886 35.7275C62.48 36.0944 62.3916 36.455 62.2297 36.7839C62.0678 37.1128 61.8362 37.402 61.5513 37.6313C61.2664 37.8605 60.935 38.0242 60.5805 38.1109C60.146 38.2333 59.7003 38.3114 59.2502 38.344V39.5098H77.7918V38.1109C77.7918 38.1109 74.6629 37.9873 72.8087 34.723Z" fill="white"/>
<path d="M30.455 10.5298C27.9588 15.326 18.8665 32.7526 17.1838 35.1892C15.0979 38.2203 12.5484 38.4535 12.5484 38.4535V39.6193H24.6005L24.7164 38.5701L22.7973 37.8403C22.3768 37.6816 21.9937 37.4368 21.6721 37.1214C21.3506 36.806 21.0976 36.4269 20.9292 36.0081C20.7608 35.5893 20.6806 35.1398 20.6938 34.6882C20.707 34.2366 20.8132 33.7927 21.0057 33.3845L21.5179 32.3912H29.6994L28.3807 30.2928H22.6003L29.9312 16.0698L35.999 28.1127C37.2273 30.5912 38.3584 32.9485 39.1024 34.6599C39.2487 34.9961 39.3201 35.3605 39.3115 35.7274C39.3029 36.0943 39.2146 36.4549 39.0527 36.7838C38.8907 37.1127 38.6592 37.4019 38.3743 37.6312C38.0894 37.8604 37.758 38.0241 37.4035 38.1108C36.9689 38.2332 36.5232 38.3113 36.0731 38.3439V39.5097H46.0786L45.2929 38.0501L30.455 10.5298Z" fill="white"/>
<path d="M33.4078 5.11108H29.9312L46.3869 35.6835L48.1089 31.9832C44.4029 25.2355 33.4078 5.11108 33.4078 5.11108Z" fill="white"/>
<path d="M49.6317 34.7229C49.5645 34.6063 49.4764 34.4455 49.3651 34.2566L47.6292 37.9872L46.9153 39.5168H54.6147V38.1178C54.6147 38.1178 51.4858 37.9872 49.6317 34.7229Z" fill="white"/>
<path d="M95.754 9.30811H93.4363V39.6194H95.754V9.30811Z" fill="white"/>
</svg>
