<svg width="88" height="88" viewBox="0 0 88 88" fill="none" xmlns="http://www.w3.org/2000/svg">
<g filter="url(#filter0_d_26_666)">
<path d="M4 15C4 6.71574 10.7157 0 19 0H68.1648C76.4491 0 83.1649 6.71573 83.1649 15V64.1648C83.1649 72.4491 76.4491 79.1649 68.1649 79.1649H19C10.7157 79.1649 4 72.4491 4 64.1649V15Z" fill="white"/>
</g>
<path d="M29.517 15.099L36.4557 26.871C36.5394 27.1263 36.6343 27.7425 36.3445 28.1649C36.0547 28.5872 33.6747 31.0214 32.5209 32.1857C32.2192 32.4133 31.7503 34.2097 32.3114 35.7296C34.3261 41.1871 44.7622 52.9276 51.8362 53.6919C53.8257 53.9069 56.1476 49.9381 57.4658 49.5887C58.784 49.2393 70.25 55.6888 70.5664 56.287C70.6545 56.4407 70.8936 56.7714 70.5071 57.0991C70.1538 57.3987 62.6208 65.404 61.7146 65.6044C61.9297 65.6459 60.1552 65.9958 58.7368 65.9014C57.6986 65.8011 54.8739 65.2034 51.7039 64.0955C47.6851 62.6908 40.9537 57.9754 38.6428 56.0691C32.4137 50.9305 27.5232 44.3404 26.0841 42.4243C23.9743 39.6151 20.1765 32.3914 19.855 27.9769C19.7746 26.8732 19.3928 24.4653 20.7592 22.8601L28.5959 15.0344C28.8973 14.8336 29.4639 15.009 29.517 15.099Z" fill="black"/>
<path d="M53.7133 42.8255C53.6128 38.712 49.8955 33.6956 43.6663 32.6923V35.9028C45.7762 36.2038 49.795 38.4111 50.6992 42.8255H53.7133Z" fill="black"/>
<path d="M43.6663 27.9768V24.1643C54.7765 25.5562 61.5046 33.3183 62.3086 42.8255H58.6363C57.4301 32.5254 49.0095 27.9768 43.6663 27.9768Z" fill="black"/>
<path d="M70.5922 42.7252H67.1762C65.3678 23.8633 48.9912 19.4488 43.6663 19.4488V15.8369C57.0288 15.5359 70.9941 29.3814 70.5922 42.7252Z" fill="black"/>
<path d="M29.517 15.099L36.4557 26.871C36.5394 27.1263 36.6343 27.7425 36.3445 28.1649C36.0547 28.5872 33.6747 31.0214 32.5209 32.1857C32.2192 32.4133 31.7503 34.2097 32.3114 35.7296C34.3261 41.1871 44.7622 52.9276 51.8362 53.6919C53.8257 53.9069 56.1476 49.9381 57.4658 49.5887C58.784 49.2393 70.25 55.6888 70.5664 56.287C70.6545 56.4407 70.8936 56.7714 70.5071 57.0991C70.143 57.4079 62.1528 65.9014 61.6504 65.6004C62.1528 65.6004 60.2438 66.0017 58.7368 65.9014C57.6986 65.8011 54.8739 65.2034 51.7039 64.0955C47.6851 62.6908 40.9537 57.9754 38.6428 56.0691C32.4137 50.9305 27.5232 44.3404 26.0841 42.4243C23.9743 39.6151 20.1765 32.3914 19.855 27.9769C19.7746 26.8732 19.3928 24.4653 20.7592 22.8601L28.5959 15.0344C28.8973 14.8336 29.4639 15.009 29.517 15.099ZM43.6663 32.6923C49.8955 33.6956 53.6128 38.712 53.7133 42.8255H50.6992C49.795 38.4111 45.7762 36.2038 43.6663 35.9028V32.6923ZM43.6663 24.1643V27.9768C49.0095 27.9768 57.4301 32.5254 58.6363 42.8255H62.3086C61.5046 33.3183 54.7765 25.5562 43.6663 24.1643ZM67.1762 42.7252H70.5922C70.9941 29.3814 57.0288 15.5359 43.6663 15.8369V19.4488C48.9912 19.4488 65.3678 23.8633 67.1762 42.7252Z" stroke="black"/>
<defs>
<filter id="filter0_d_26_666" x="0" y="0" width="87.1649" height="87.1648" filterUnits="userSpaceOnUse" color-interpolation-filters="sRGB">
<feFlood flood-opacity="0" result="BackgroundImageFix"/>
<feColorMatrix in="SourceAlpha" type="matrix" values="0 0 0 0 0 0 0 0 0 0 0 0 0 0 0 0 0 0 127 0" result="hardAlpha"/>
<feOffset dy="4"/>
<feGaussianBlur stdDeviation="2"/>
<feComposite in2="hardAlpha" operator="out"/>
<feColorMatrix type="matrix" values="0 0 0 0 0 0 0 0 0 0 0 0 0 0 0 0 0 0 0.25 0"/>
<feBlend mode="normal" in2="BackgroundImageFix" result="effect1_dropShadow_26_666"/>
<feBlend mode="normal" in="SourceGraphic" in2="effect1_dropShadow_26_666" result="shape"/>
</filter>
</defs>
</svg>
