<svg width="127" height="127" viewBox="0 0 127 127" fill="none" xmlns="http://www.w3.org/2000/svg">
<path d="M90.275 97.0417L100.513 126.558H91.85L71.375 97.0417H47.75C43.4187 97.0417 39.875 94.0229 39.875 90.3333C39.875 86.6437 43.4187 83.625 47.75 83.625H71.375L91.85 54.1083H100.513L90.275 83.625H112.719L118.625 76.9167H126.5L121.775 90.3333L126.5 103.75H118.625L112.719 97.0417H90.275ZM14.2813 29.9583L8.375 23.25H0.5L5.225 36.6667L0.5 50.0833H8.375L14.2813 43.375H36.725L26.4875 72.8917H35.15L55.625 43.375L79.25 43.375C83.5813 43.375 87.125 40.3563 87.125 36.6667C87.125 32.9771 83.5813 29.9583 79.25 29.9583H55.625L35.15 0.441666L26.4875 0.441666L36.725 29.9583L14.2813 29.9583Z" fill="#A39F97"/>
</svg>
