<svg width="197" height="32" viewBox="0 0 197 32" fill="none" xmlns="http://www.w3.org/2000/svg">
<path d="M79.323 24.1279H81.4864L83.5097 19.359H89.9306L91.97 24.1279H94.1351L86.725 7.43586L79.323 24.1279ZM89.1687 17.5423H84.2893L86.725 11.8193L89.1687 17.5423Z" fill="white"/>
<path d="M104.036 20.5396L98.797 8.23095H96.6335L104.036 24.923L111.439 8.23095H109.274L104.036 20.5396Z" fill="white"/>
<path d="M113.944 24.1279H116.108L118.131 19.359H124.552L126.585 24.1279H128.75L121.34 7.43586L113.944 24.1279ZM123.79 17.5423H118.911L121.346 11.8193L123.79 17.5423Z" fill="white"/>
<path d="M137.176 8.23095H135.24V24.1279H143.441V22.3113H137.176V8.23095Z" fill="white"/>
<path d="M162.322 10.3544C161.59 9.61763 160.72 9.03102 159.761 8.62769C157.697 7.79458 155.389 7.79458 153.325 8.62769C152.361 9.02889 151.485 9.61563 150.748 10.3544C150.015 11.0959 149.438 11.9763 149.052 12.9437C148.246 15.0222 148.246 17.3254 149.052 19.404C149.436 20.3783 150.014 21.2651 150.751 22.0109C151.487 22.7507 152.364 23.3376 153.329 23.7376C155.393 24.5707 157.7 24.5707 159.764 23.7376C160.723 23.3355 161.594 22.7487 162.326 22.0109C163.062 21.2672 163.639 20.3826 164.023 19.4104C164.827 17.3314 164.827 15.0291 164.023 12.9501C163.637 11.9797 163.058 11.097 162.322 10.3544ZM161.787 19.3815C161.268 20.3164 160.508 21.0956 159.585 21.6382C158.661 22.1808 157.609 22.467 156.538 22.467C155.466 22.467 154.414 22.1808 153.491 21.6382C152.567 21.0956 151.807 20.3164 151.288 19.3815C150.771 18.3927 150.502 17.2943 150.502 16.1794C150.502 15.0646 150.771 13.9662 151.288 12.9774C151.805 12.0408 152.565 11.2598 153.489 10.7158C154.412 10.1719 155.465 9.885 156.538 9.885C157.61 9.885 158.663 10.1719 159.586 10.7158C160.51 11.2598 161.27 12.0408 161.787 12.9774C162.304 13.9662 162.574 15.0646 162.574 16.1794C162.574 17.2943 162.304 18.3927 161.787 19.3815Z" fill="white"/>
<path d="M179.314 16.0678V17.8828H184.63C184.498 18.4932 184.282 19.082 183.985 19.632C183.69 20.1715 183.31 20.6598 182.858 21.0777C182.386 21.5115 181.832 21.8473 181.229 22.0655C180.546 22.309 179.825 22.4281 179.1 22.4173C178.038 22.4339 176.992 22.1642 176.072 21.6365C175.152 21.1089 174.392 20.3431 173.872 19.42C173.341 18.4173 173.064 17.3005 173.064 16.1666C173.064 15.0326 173.341 13.9158 173.872 12.9131C174.394 11.993 175.155 11.2301 176.075 10.7044C176.995 10.1787 178.04 9.90965 179.1 9.92553C180.198 9.89887 181.286 10.145 182.265 10.6419C183.136 11.0957 183.861 11.7841 184.359 12.6288L185.725 11.3792C185.29 10.659 184.722 10.0274 184.051 9.51754C183.38 9.01219 182.625 8.62787 181.82 8.38193C180.938 8.11655 180.02 7.98603 179.098 7.99483C177.998 7.98448 176.907 8.18912 175.886 8.59717C174.919 8.98375 174.042 9.56375 173.309 10.3014C172.573 11.0456 171.996 11.9301 171.612 12.9019C170.807 15.0081 170.807 17.3363 171.612 19.4425C171.997 20.4141 172.574 21.2985 173.309 22.043C174.042 22.7796 174.919 23.359 175.886 23.7456C176.907 24.1537 177.998 24.3583 179.098 24.348C180.216 24.3681 181.325 24.1392 182.344 23.6782C183.264 23.2489 184.08 22.6252 184.735 21.8503C185.393 21.0705 185.896 20.1726 186.217 19.2048C186.554 18.1906 186.723 17.1283 186.718 16.0598L179.314 16.0678Z" fill="white"/>
<path d="M37.8443 11.5703L38.7174 13.289L42.9991 4.02099H40.0995L33.3628 17.2211L34.1908 18.8145L37.8443 11.5703Z" fill="white"/>
<path d="M51.5368 24.4202C50.7201 22.9939 44.8001 12.2369 42.6496 8.32893L39.5502 14.9258L42.0616 19.8666C42.9154 21.574 43.7015 23.1979 44.2186 24.3769C44.3203 24.6085 44.3699 24.8595 44.3639 25.1123C44.358 25.365 44.2966 25.6134 44.184 25.84C44.0715 26.0666 43.9106 26.2658 43.7125 26.4237C43.5145 26.5817 43.2842 26.6944 43.0378 26.7541C42.7358 26.8385 42.426 26.8923 42.1131 26.9147V27.7179H55.0002V26.7541C55.0002 26.7541 52.8255 26.669 51.5368 24.4202Z" fill="white"/>
<path d="M22.0995 7.75389C20.3646 11.0579 14.045 23.063 12.8755 24.7415C11.4257 26.8296 9.65377 26.9902 9.65377 26.9902V27.7934H18.0304L18.1109 27.0705L16.7771 26.5678C16.4849 26.4585 16.2186 26.2898 15.9951 26.0726C15.7716 25.8553 15.5957 25.5941 15.4787 25.3056C15.3616 25.0171 15.3059 24.7075 15.3151 24.3964C15.3242 24.0853 15.3981 23.7794 15.5319 23.4983L15.8879 22.814H21.5743L20.6577 21.3684H16.6402L21.7354 11.5703L25.9527 19.8666C26.8065 21.574 27.5926 23.1979 28.1097 24.3769C28.2114 24.6085 28.261 24.8595 28.2551 25.1123C28.2491 25.365 28.1877 25.6134 28.0752 25.84C27.9626 26.0666 27.8017 26.2658 27.6037 26.4237C27.4056 26.5817 27.1753 26.6944 26.9289 26.7541C26.6269 26.8385 26.3171 26.8923 26.0043 26.9147V27.7179H32.9585L32.4124 26.7124L22.0995 7.75389Z" fill="white"/>
<path d="M24.1517 4.02099H21.7354L33.1727 25.082L34.3696 22.5329C31.7938 17.8845 24.1517 4.02099 24.1517 4.02099Z" fill="white"/>
<path d="M35.4279 24.4202C35.3812 24.3399 35.32 24.2291 35.2427 24.099L34.0361 26.669L33.54 27.7227H38.8914V26.7589C38.8914 26.7589 36.7167 26.669 35.4279 24.4202Z" fill="white"/>
<path d="M67.4846 6.91223H65.8737V27.7934H67.4846V6.91223Z" fill="white"/>
</svg>
