<svg width="55" height="54" viewBox="0 0 55 54" fill="none" xmlns="http://www.w3.org/2000/svg">
<path d="M17.1462 44.6522C12.4308 41.9653 8.97587 37.5152 7.54151 32.281C6.10714 27.0468 6.81082 21.4571 9.49774 16.7417C12.1847 12.0263 16.6347 8.57137 21.8689 7.13701C27.1032 5.70264 32.6928 6.40632 37.4082 9.09324C42.1237 11.7802 45.5786 16.2302 47.0129 21.4644C48.4473 26.6987 47.7436 32.2883 45.0567 37.0037C42.3698 41.7192 37.9197 45.1741 32.6855 46.6084C27.4513 48.0428 21.8616 47.3391 17.1462 44.6522L17.1462 44.6522Z" stroke="white" stroke-width="2"/>
<path d="M27.6396 25.9401C27.5954 25.9401 27.5659 25.9401 27.5217 25.9401C27.448 25.9253 27.3449 25.9253 27.2565 25.9401C22.9832 25.8074 19.7561 22.4477 19.7561 18.3071C19.7561 14.0927 23.1895 10.6594 27.4038 10.6594C31.6182 10.6594 35.0515 14.0927 35.0515 18.3071C35.0368 22.4477 31.795 25.8074 27.6838 25.9401C27.669 25.9401 27.6543 25.9401 27.6396 25.9401ZM27.4038 12.8697C24.4125 12.8697 21.9664 15.3158 21.9664 18.3071C21.9664 21.2542 24.2652 23.6266 27.1975 23.7297C27.2712 23.715 27.4775 23.715 27.669 23.7297C30.5572 23.5971 32.8265 21.2247 32.8412 18.3071C32.8412 15.3158 30.3951 12.8697 27.4038 12.8697Z" fill="white"/>
<path d="M27.6544 42.0459C24.7662 42.0459 21.8633 41.3091 19.6678 39.8356C17.6195 38.4799 16.4996 36.6233 16.4996 34.6045C16.4996 32.5857 17.6195 30.7143 19.6678 29.3439C24.0884 26.4116 31.2498 26.4116 35.641 29.3439C37.6745 30.6996 38.8091 32.5563 38.8091 34.575C38.8091 36.5938 37.6892 38.4652 35.641 39.8356C33.4307 41.3091 30.5425 42.0459 27.6544 42.0459ZM20.8908 31.2006C19.4762 32.1437 18.71 33.352 18.71 34.6192C18.71 35.8718 19.4909 37.0801 20.8908 38.0084C24.5599 40.4692 30.7488 40.4692 34.418 38.0084C35.8326 37.0653 36.5988 35.857 36.5988 34.5898C36.5988 33.3373 35.8178 32.1289 34.418 31.2006C30.7488 28.7545 24.5599 28.7545 20.8908 31.2006Z" fill="white"/>
</svg>
