<svg width="1200" height="196" viewBox="0 0 1200 196" fill="none" xmlns="http://www.w3.org/2000/svg">
<rect width="1200" height="196" rx="15" fill="white"/>
<path d="M66.3086 51.6055V52.8184C66.3086 54.7637 66.0449 56.5098 65.5176 58.0566C64.9902 59.6035 64.2461 60.9219 63.2852 62.0117C62.3242 63.0898 61.1758 63.916 59.8398 64.4902C58.5156 65.0645 57.0449 65.3516 55.4277 65.3516C53.8223 65.3516 52.3516 65.0645 51.0156 64.4902C49.6914 63.916 48.543 63.0898 47.5703 62.0117C46.5977 60.9219 45.8418 59.6035 45.3027 58.0566C44.7754 56.5098 44.5117 54.7637 44.5117 52.8184V51.6055C44.5117 49.6484 44.7754 47.9023 45.3027 46.3672C45.8301 44.8203 46.5742 43.502 47.5352 42.4121C48.5078 41.3223 49.6562 40.4902 50.9805 39.916C52.3164 39.3418 53.7871 39.0547 55.3926 39.0547C57.0098 39.0547 58.4805 39.3418 59.8047 39.916C61.1406 40.4902 62.2891 41.3223 63.25 42.4121C64.2227 43.502 64.9727 44.8203 65.5 46.3672C66.0391 47.9023 66.3086 49.6484 66.3086 51.6055ZM60.9824 52.8184V51.5703C60.9824 50.2109 60.8594 49.0156 60.6133 47.9844C60.3672 46.9531 60.0039 46.0859 59.5234 45.3828C59.043 44.6797 58.457 44.1523 57.7656 43.8008C57.0742 43.4375 56.2832 43.2559 55.3926 43.2559C54.502 43.2559 53.7109 43.4375 53.0195 43.8008C52.3398 44.1523 51.7598 44.6797 51.2793 45.3828C50.8105 46.0859 50.4531 46.9531 50.207 47.9844C49.9609 49.0156 49.8379 50.2109 49.8379 51.5703V52.8184C49.8379 54.166 49.9609 55.3613 50.207 56.4043C50.4531 57.4355 50.8164 58.3086 51.2969 59.0234C51.7773 59.7266 52.3633 60.2598 53.0547 60.623C53.7461 60.9863 54.5371 61.168 55.4277 61.168C56.3184 61.168 57.1094 60.9863 57.8008 60.623C58.4922 60.2598 59.0723 59.7266 59.541 59.0234C60.0098 58.3086 60.3672 57.4355 60.6133 56.4043C60.8594 55.3613 60.9824 54.166 60.9824 52.8184ZM82.4434 37.6133H86.5391C86.5391 38.5625 86.4219 39.377 86.1875 40.0566C85.9531 40.7246 85.5781 41.2988 85.0625 41.7793C84.5469 42.248 83.8555 42.6465 82.9883 42.9746C82.1211 43.3027 81.0488 43.584 79.7715 43.8184C78.7871 44.0176 77.9316 44.3457 77.2051 44.8027C76.4902 45.2598 75.8984 45.8867 75.4297 46.6836C74.9727 47.4688 74.6445 48.4648 74.4453 49.6719C74.2461 50.8672 74.1758 52.3086 74.2344 53.9961V54.8398L70.2969 55.3848V54.541C70.3086 52.2441 70.5137 50.2461 70.9121 48.5469C71.3223 46.8477 71.9023 45.418 72.6523 44.2578C73.4023 43.0859 74.3047 42.1543 75.3594 41.4629C76.4141 40.7598 77.5859 40.2676 78.875 39.9863C79.7422 39.7988 80.4336 39.6172 80.9492 39.4414C81.4766 39.2539 81.8574 39.0195 82.0918 38.7383C82.3262 38.457 82.4434 38.082 82.4434 37.6133ZM80.2285 47.0527C81.5176 47.0527 82.6602 47.2754 83.6562 47.7207C84.6523 48.1543 85.4902 48.7695 86.1699 49.5664C86.8496 50.3633 87.3652 51.3008 87.7168 52.3789C88.0684 53.457 88.2441 54.6348 88.2441 55.9121V56.2812C88.2441 57.582 88.0449 58.7891 87.6465 59.9023C87.2598 61.0039 86.6855 61.9648 85.9238 62.7852C85.1621 63.6055 84.2246 64.2441 83.1113 64.7012C81.998 65.1465 80.7266 65.3691 79.2969 65.3691C77.8555 65.3691 76.5723 65.1289 75.4473 64.6484C74.334 64.1562 73.3906 63.4707 72.6172 62.5918C71.8555 61.7012 71.2754 60.6641 70.877 59.4805C70.4902 58.2852 70.2969 56.9844 70.2969 55.5781V55.1914C70.2969 54.9922 70.3848 54.7988 70.5605 54.6113C70.748 54.4121 70.9648 54.1895 71.2109 53.9434C71.4688 53.6973 71.6973 53.3867 71.8965 53.0117C72.5996 51.7109 73.3672 50.6211 74.1992 49.7422C75.0312 48.8516 75.9395 48.1836 76.9238 47.7383C77.9199 47.2812 79.0215 47.0527 80.2285 47.0527ZM79.2617 51.0078C78.3125 51.0078 77.5508 51.2363 76.9766 51.6934C76.4023 52.1387 75.9863 52.7363 75.7285 53.4863C75.4824 54.2246 75.3594 55.0332 75.3594 55.9121V56.2812C75.3594 56.9961 75.4297 57.6641 75.5703 58.2852C75.7109 58.8945 75.9336 59.4395 76.2383 59.9199C76.543 60.3887 76.9473 60.7578 77.4512 61.0273C77.9551 61.2852 78.5703 61.4141 79.2969 61.4141C80 61.4141 80.5977 61.2852 81.0898 61.0273C81.5938 60.7578 81.998 60.3887 82.3027 59.9199C82.6074 59.4395 82.8301 58.8945 82.9707 58.2852C83.1113 57.6641 83.1816 56.9961 83.1816 56.2812V55.9121C83.1816 55.2441 83.1113 54.6172 82.9707 54.0312C82.8301 53.4336 82.6074 52.9121 82.3027 52.4668C81.998 52.0098 81.5938 51.6523 81.0898 51.3945C80.5859 51.1367 79.9766 51.0078 79.2617 51.0078ZM107.928 62.8555L112.973 45.9805H118.404L110.758 67.8652C110.594 68.3457 110.371 68.8613 110.09 69.4121C109.82 69.9629 109.451 70.4844 108.982 70.9766C108.525 71.4805 107.945 71.8906 107.242 72.207C106.551 72.5234 105.701 72.6816 104.693 72.6816C104.213 72.6816 103.82 72.6523 103.516 72.5938C103.211 72.5352 102.848 72.4531 102.426 72.3477V68.6387C102.555 68.6387 102.689 68.6387 102.83 68.6387C102.971 68.6504 103.105 68.6562 103.234 68.6562C103.902 68.6562 104.447 68.5801 104.869 68.4277C105.291 68.2754 105.631 68.041 105.889 67.7246C106.146 67.4199 106.352 67.0215 106.504 66.5293L107.928 62.8555ZM105.818 45.9805L109.949 59.7617L110.67 65.123L107.225 65.4922L100.387 45.9805H105.818ZM129.037 61.3965C129.658 61.3965 130.209 61.2793 130.689 61.0449C131.17 60.7988 131.545 60.459 131.814 60.0254C132.096 59.5801 132.242 59.0586 132.254 58.4609H137.018C137.006 59.7969 136.648 60.9863 135.945 62.0293C135.242 63.0605 134.299 63.875 133.115 64.4727C131.932 65.0586 130.607 65.3516 129.143 65.3516C127.666 65.3516 126.377 65.1055 125.275 64.6133C124.186 64.1211 123.277 63.4414 122.551 62.5742C121.824 61.6953 121.279 60.6758 120.916 59.5156C120.553 58.3438 120.371 57.0898 120.371 55.7539V55.2441C120.371 53.8965 120.553 52.6426 120.916 51.4824C121.279 50.3105 121.824 49.291 122.551 48.4238C123.277 47.5449 124.186 46.8594 125.275 46.3672C126.365 45.875 127.643 45.6289 129.107 45.6289C130.666 45.6289 132.031 45.9277 133.203 46.5254C134.387 47.123 135.312 47.9785 135.98 49.0918C136.66 50.1934 137.006 51.5 137.018 53.0117H132.254C132.242 52.3789 132.107 51.8047 131.85 51.2891C131.604 50.7734 131.24 50.3633 130.76 50.0586C130.291 49.7422 129.711 49.584 129.02 49.584C128.281 49.584 127.678 49.7422 127.209 50.0586C126.74 50.3633 126.377 50.7852 126.119 51.3242C125.861 51.8516 125.68 52.4551 125.574 53.1348C125.48 53.8027 125.434 54.5059 125.434 55.2441V55.7539C125.434 56.4922 125.48 57.2012 125.574 57.8809C125.668 58.5605 125.844 59.1641 126.102 59.6914C126.371 60.2188 126.74 60.6348 127.209 60.9395C127.678 61.2441 128.287 61.3965 129.037 61.3965ZM153.75 45.9805V49.9531H144.398V45.9805H153.75ZM157.459 45.9805V65H152.396V45.9805H157.459ZM143.133 45.9805H148.107L147.598 55.5781C147.527 56.9492 147.381 58.1562 147.158 59.1992C146.936 60.2422 146.637 61.1328 146.262 61.8711C145.898 62.6094 145.459 63.2129 144.943 63.6816C144.439 64.1387 143.848 64.4727 143.168 64.6836C142.5 64.8945 141.762 65 140.953 65H139.406L139.354 61.0098L140.004 60.9395C140.379 60.9043 140.707 60.7988 140.988 60.623C141.281 60.4355 141.527 60.1719 141.727 59.832C141.938 59.4805 142.113 59.041 142.254 58.5137C142.395 57.9746 142.506 57.3418 142.588 56.6152C142.682 55.8887 142.746 55.0508 142.781 54.1016L143.133 45.9805ZM168.021 62.8555L173.066 45.9805H178.498L170.852 67.8652C170.688 68.3457 170.465 68.8613 170.184 69.4121C169.914 69.9629 169.545 70.4844 169.076 70.9766C168.619 71.4805 168.039 71.8906 167.336 72.207C166.645 72.5234 165.795 72.6816 164.787 72.6816C164.307 72.6816 163.914 72.6523 163.609 72.5938C163.305 72.5352 162.941 72.4531 162.52 72.3477V68.6387C162.648 68.6387 162.783 68.6387 162.924 68.6387C163.064 68.6504 163.199 68.6562 163.328 68.6562C163.996 68.6562 164.541 68.5801 164.963 68.4277C165.385 68.2754 165.725 68.041 165.982 67.7246C166.24 67.4199 166.445 67.0215 166.598 66.5293L168.021 62.8555ZM165.912 45.9805L170.043 59.7617L170.764 65.123L167.318 65.4922L160.48 45.9805H165.912ZM194.457 45.9805V49.9531H186.547V65H181.484V45.9805H194.457ZM206.039 65.3516C204.562 65.3516 203.238 65.1172 202.066 64.6484C200.895 64.168 199.898 63.5059 199.078 62.6621C198.27 61.8184 197.648 60.8398 197.215 59.7266C196.781 58.6016 196.564 57.4062 196.564 56.1406V55.4375C196.564 53.9961 196.77 52.6777 197.18 51.4824C197.59 50.2871 198.176 49.25 198.938 48.3711C199.711 47.4922 200.648 46.8184 201.75 46.3496C202.852 45.8691 204.094 45.6289 205.477 45.6289C206.824 45.6289 208.02 45.8516 209.062 46.2969C210.105 46.7422 210.979 47.375 211.682 48.1953C212.396 49.0156 212.936 50 213.299 51.1484C213.662 52.2852 213.844 53.5508 213.844 54.9453V57.0547H198.727V53.6797H208.869V53.293C208.869 52.5898 208.74 51.9629 208.482 51.4121C208.236 50.8496 207.861 50.4043 207.357 50.0762C206.854 49.748 206.209 49.584 205.424 49.584C204.756 49.584 204.182 49.7305 203.701 50.0234C203.221 50.3164 202.828 50.7266 202.523 51.2539C202.23 51.7812 202.008 52.4023 201.855 53.1172C201.715 53.8203 201.645 54.5938 201.645 55.4375V56.1406C201.645 56.9023 201.75 57.6055 201.961 58.25C202.184 58.8945 202.494 59.4512 202.893 59.9199C203.303 60.3887 203.795 60.752 204.369 61.0098C204.955 61.2676 205.617 61.3965 206.355 61.3965C207.27 61.3965 208.119 61.2207 208.904 60.8691C209.701 60.5059 210.387 59.9609 210.961 59.2344L213.422 61.9062C213.023 62.4805 212.479 63.0312 211.787 63.5586C211.107 64.0859 210.287 64.5195 209.326 64.8594C208.365 65.1875 207.27 65.3516 206.039 65.3516ZM59.3833 124V122.339L61.5322 121.97V106.848L59.3833 106.479V104.805H66.2783V106.479L64.1294 106.848V113.453H66.2256L70.563 107.204C71.2749 106.22 71.8945 105.552 72.4219 105.2C72.9492 104.84 73.5601 104.66 74.2544 104.66C74.6675 104.66 75.0146 104.712 75.2959 104.818C75.5859 104.915 75.8892 105.06 76.2056 105.253L75.8232 107.085C75.5859 107.042 75.375 107.006 75.1904 106.98C75.0146 106.945 74.8389 106.927 74.6631 106.927C74.25 106.927 73.8984 107.037 73.6084 107.257C73.3271 107.477 72.9976 107.85 72.6196 108.377L68.4932 114.125L74.874 122.009L76.6802 122.339V124H70.3784V122.339L71.8418 122.154L71.7891 122.088L66.6079 115.642H64.1294V121.97L66.2783 122.339V124H59.3833ZM84.9575 124.277C83.6392 124.277 82.501 123.969 81.543 123.354C80.5938 122.73 79.8599 121.873 79.3413 120.783C78.8228 119.685 78.5635 118.432 78.5635 117.026V116.736C78.5635 115.33 78.8228 114.082 79.3413 112.992C79.8599 111.893 80.5938 111.032 81.543 110.408C82.501 109.784 83.6304 109.472 84.9312 109.472C86.2495 109.472 87.3833 109.784 88.3325 110.408C89.2905 111.032 90.0288 111.889 90.5474 112.979C91.0659 114.068 91.3252 115.321 91.3252 116.736V117.026C91.3252 118.441 91.0659 119.698 90.5474 120.796C90.0288 121.886 89.2949 122.739 88.3457 123.354C87.3965 123.969 86.2671 124.277 84.9575 124.277ZM84.9575 122.247C85.7837 122.247 86.4736 122.022 87.0273 121.574C87.5898 121.117 88.0117 120.498 88.293 119.715C88.583 118.924 88.728 118.028 88.728 117.026V116.736C88.728 115.734 88.583 114.842 88.293 114.06C88.0117 113.269 87.5898 112.649 87.0273 112.201C86.4648 111.744 85.7661 111.515 84.9312 111.515C84.105 111.515 83.4106 111.744 82.8481 112.201C82.2856 112.649 81.8638 113.269 81.5825 114.06C81.3013 114.842 81.1606 115.734 81.1606 116.736V117.026C81.1606 118.028 81.3013 118.924 81.5825 119.715C81.8638 120.498 82.2856 121.117 82.8481 121.574C83.4194 122.022 84.1226 122.247 84.9575 122.247ZM94.9751 124V122.339L97.124 121.97V111.779L94.9751 111.41V109.735H97.124H100.473L105.113 120.599H105.192L109.846 109.735H113.103H115.251V111.41L113.103 111.779V121.97L115.251 122.339V124H108.356V122.339L110.505 121.97V114.099L110.426 114.073L106.049 124H104.256L99.8003 113.862L99.7212 113.888V121.97L101.87 122.339V124H94.9751ZM118.704 124V122.339L120.853 121.97V111.779L118.704 111.41V109.735H134.55V111.41L132.401 111.779V121.97L134.55 122.339V124H127.655V122.339L129.804 121.97V111.792H123.45V121.97L125.599 122.339V124H118.704ZM142.419 124.277C140.934 124.277 139.804 123.917 139.031 123.196C138.257 122.466 137.871 121.442 137.871 120.124C137.871 119.219 138.117 118.432 138.609 117.764C139.11 117.087 139.831 116.564 140.771 116.195C141.711 115.817 142.836 115.628 144.146 115.628H146.69V114.231C146.69 113.37 146.427 112.702 145.899 112.227C145.381 111.752 144.647 111.515 143.698 111.515C143.1 111.515 142.582 111.59 142.142 111.739C141.703 111.88 141.303 112.078 140.942 112.333L140.666 114.323H138.662V111.054C139.303 110.535 140.05 110.144 140.903 109.88C141.755 109.608 142.7 109.472 143.737 109.472C145.469 109.472 146.827 109.885 147.811 110.711C148.795 111.537 149.288 112.719 149.288 114.257V121.126C149.288 121.311 149.288 121.491 149.288 121.667C149.296 121.842 149.31 122.018 149.327 122.194L150.711 122.339V124H146.98C146.901 123.613 146.84 123.266 146.796 122.958C146.752 122.651 146.721 122.343 146.704 122.036C146.203 122.677 145.574 123.213 144.818 123.644C144.071 124.066 143.271 124.277 142.419 124.277ZM142.801 122.102C143.663 122.102 144.449 121.895 145.161 121.482C145.873 121.069 146.383 120.572 146.69 119.992V117.408H144.054C142.858 117.408 141.962 117.694 141.364 118.265C140.767 118.836 140.468 119.474 140.468 120.177C140.468 120.801 140.661 121.28 141.048 121.614C141.435 121.939 142.019 122.102 142.801 122.102ZM154.032 124V122.339L156.181 121.97V111.779L154.032 111.41V109.735H160.927V111.41L158.778 111.779V115.905H165.119V111.779L162.97 111.41V109.735H165.119H167.729H169.878V111.41L167.729 111.779V121.97L169.878 122.339V124H162.97V122.339L165.119 121.97V117.936H158.778V121.97L160.927 122.339V124H154.032ZM173.436 124V122.339L175.585 121.97V111.779L173.436 111.41V109.735H178.169H180.318V111.41L178.169 111.779V119.834L178.248 119.86L184.537 109.735H187.134H189.283V111.41L187.134 111.779V121.97L189.283 122.339V124H182.388V122.339L184.537 121.97V113.901L184.458 113.875L178.169 124H173.436ZM192.418 124V122.339L194.291 122.062L196.729 118.081C195.824 117.755 195.125 117.241 194.633 116.538C194.15 115.835 193.908 115.022 193.908 114.099C193.908 113.247 194.128 112.491 194.567 111.832C195.007 111.172 195.635 110.658 196.453 110.289C197.27 109.92 198.246 109.735 199.379 109.735H207.553V111.41L205.404 111.779V121.97L207.553 122.339V124H200.658V122.339L202.807 121.97V118.463H199.287L195.912 124H192.418ZM199.116 116.419H202.807V111.752H199.379C198.439 111.752 197.727 111.99 197.244 112.464C196.76 112.93 196.519 113.484 196.519 114.125C196.519 114.758 196.734 115.299 197.165 115.747C197.604 116.195 198.254 116.419 199.116 116.419ZM218.373 124V122.339L219.797 122.141L226.507 104.805H228.735L235.327 122.141L236.738 122.339V124H231.227V122.339L232.677 122.088L231.412 118.555H223.726L222.42 122.088L223.871 122.339V124H218.373ZM224.53 116.38H230.621L227.799 108.575L227.641 108.14H227.562L227.404 108.575L224.53 116.38ZM243.881 124L237.448 106.69L235.918 106.479V104.805H241.983V106.479L240.229 106.756L244.527 118.964L244.976 120.48H245.055L245.529 118.964L249.985 106.743L248.034 106.479V104.805H254.085V106.479L252.543 106.69L246.109 124H243.881ZM253.121 124V122.339L254.545 122.141L261.255 104.805H263.483L270.075 122.141L271.486 122.339V124H265.975V122.339L267.425 122.088L266.16 118.555H258.474L257.168 122.088L258.619 122.339V124H253.121ZM259.278 116.38H265.369L262.547 108.575L262.389 108.14H262.31L262.152 108.575L259.278 116.38ZM274.49 124V122.339L276.639 121.97V106.848L274.49 106.479V104.805H276.639H279.236H281.385V106.479L279.236 106.848V122.009H286.025L286.329 118.977H288.319V124H274.49ZM298.403 124.277C297.164 124.277 296.052 124.04 295.067 123.565C294.083 123.09 293.244 122.422 292.549 121.561C291.864 120.691 291.336 119.663 290.967 118.476C290.607 117.29 290.427 115.98 290.427 114.547V114.271C290.427 112.847 290.607 111.542 290.967 110.355C291.336 109.16 291.864 108.127 292.549 107.257C293.244 106.387 294.083 105.714 295.067 105.24C296.052 104.765 297.164 104.528 298.403 104.528C299.712 104.528 300.864 104.765 301.857 105.24C302.85 105.714 303.681 106.387 304.349 107.257C305.025 108.127 305.535 109.16 305.878 110.355C306.221 111.542 306.392 112.847 306.392 114.271V114.547C306.392 115.98 306.221 117.29 305.878 118.476C305.535 119.663 305.025 120.691 304.349 121.561C303.681 122.422 302.85 123.09 301.857 123.565C300.864 124.04 299.712 124.277 298.403 124.277ZM298.403 122.115C299.677 122.115 300.706 121.798 301.488 121.166C302.279 120.533 302.859 119.649 303.228 118.516C303.597 117.373 303.782 116.05 303.782 114.547V114.244C303.782 112.75 303.593 111.44 303.215 110.315C302.846 109.182 302.266 108.298 301.475 107.666C300.684 107.024 299.66 106.703 298.403 106.703C297.251 106.703 296.276 107.024 295.476 107.666C294.676 108.307 294.07 109.195 293.657 110.329C293.244 111.454 293.037 112.759 293.037 114.244V114.547C293.037 116.042 293.244 117.36 293.657 118.502C294.07 119.636 294.676 120.524 295.476 121.166C296.276 121.798 297.251 122.115 298.403 122.115ZM318.796 124.277C317.021 124.277 315.482 123.868 314.182 123.051C312.881 122.225 311.879 121.082 311.176 119.623C310.473 118.164 310.121 116.477 310.121 114.561V114.244C310.121 112.311 310.473 110.619 311.176 109.168C311.888 107.709 312.859 106.571 314.089 105.754C315.32 104.937 316.717 104.528 318.282 104.528C319.776 104.528 321.042 104.699 322.079 105.042C323.125 105.385 324.017 105.846 324.755 106.426V110.302H322.619L322.342 107.521C321.912 107.239 321.384 107.028 320.76 106.888C320.136 106.738 319.398 106.664 318.545 106.664C317.447 106.664 316.458 106.98 315.579 107.613C314.7 108.246 314.006 109.129 313.496 110.263C312.986 111.388 312.731 112.706 312.731 114.218V114.561C312.731 116.09 312.964 117.426 313.43 118.568C313.905 119.702 314.595 120.585 315.5 121.218C316.405 121.842 317.504 122.154 318.796 122.154C319.675 122.154 320.417 122.08 321.024 121.93C321.63 121.772 322.167 121.57 322.632 121.324V116.815L318.954 116.683V114.771H325.229V122.207C324.676 122.726 323.88 123.2 322.843 123.631C321.815 124.062 320.466 124.277 318.796 124.277ZM336.814 124V122.339L338.963 121.97V111.779L336.814 111.41V109.735H352.661V111.41L350.512 111.779V121.97L352.661 122.339V124H345.766V122.339L347.915 121.97V111.792H341.56V121.97L343.709 122.339V124H336.814ZM355.52 129.484V127.81L357.537 127.441V111.779L355.388 111.41V109.735H359.765L360.002 111.476C360.477 110.825 361.052 110.329 361.729 109.986C362.415 109.643 363.206 109.472 364.102 109.472C365.28 109.472 366.286 109.792 367.121 110.434C367.956 111.067 368.593 111.959 369.033 113.11C369.472 114.253 369.692 115.593 369.692 117.131V117.408C369.692 118.779 369.468 119.979 369.02 121.007C368.58 122.036 367.947 122.84 367.121 123.42C366.295 123.991 365.302 124.277 364.142 124.277C363.263 124.277 362.489 124.132 361.821 123.842C361.162 123.543 360.6 123.104 360.134 122.523V127.441L362.401 127.81V129.484H355.52ZM363.337 122.247C364.568 122.247 365.5 121.798 366.132 120.902C366.765 120.005 367.082 118.841 367.082 117.408V117.131C367.082 116.042 366.941 115.083 366.66 114.257C366.378 113.422 365.957 112.768 365.394 112.293C364.84 111.818 364.146 111.581 363.311 111.581C362.573 111.581 361.94 111.748 361.413 112.082C360.885 112.416 360.459 112.873 360.134 113.453V120.401C360.459 120.99 360.881 121.447 361.399 121.772C361.927 122.088 362.573 122.247 363.337 122.247ZM380.29 124.277C378.971 124.277 377.824 123.978 376.849 123.38C375.873 122.774 375.117 121.935 374.581 120.862C374.054 119.79 373.79 118.551 373.79 117.145V116.564C373.79 115.211 374.067 114.002 374.621 112.939C375.183 111.867 375.926 111.023 376.849 110.408C377.78 109.784 378.795 109.472 379.894 109.472C381.177 109.472 382.25 109.735 383.111 110.263C383.981 110.79 384.636 111.533 385.075 112.491C385.515 113.44 385.734 114.561 385.734 115.853V117.474H376.479L376.44 117.54C376.458 118.454 376.616 119.267 376.915 119.979C377.222 120.682 377.662 121.236 378.233 121.64C378.804 122.044 379.49 122.247 380.29 122.247C381.168 122.247 381.938 122.124 382.597 121.877C383.265 121.623 383.84 121.275 384.324 120.836L385.339 122.523C384.829 123.016 384.152 123.433 383.309 123.776C382.474 124.11 381.467 124.277 380.29 124.277ZM376.559 115.444H383.137V115.101C383.137 114.416 383.014 113.805 382.768 113.269C382.531 112.724 382.17 112.297 381.687 111.99C381.212 111.673 380.615 111.515 379.894 111.515C379.314 111.515 378.787 111.687 378.312 112.029C377.837 112.363 377.446 112.82 377.139 113.4C376.831 113.98 376.629 114.64 376.532 115.378L376.559 115.444ZM388.91 128.192L388.659 121.97H389.78C390.149 121.548 390.47 121.13 390.742 120.717C391.015 120.295 391.252 119.834 391.454 119.333C391.656 118.823 391.819 118.23 391.942 117.553C392.074 116.868 392.17 116.05 392.232 115.101L392.364 111.766L390.294 111.41V109.735H401.764H403.913V111.41L401.764 111.779V121.97H403.662L403.398 128.192H401.065V124H391.243V128.192H388.91ZM392.772 121.97H399.167V112.042H394.948L394.829 115.101C394.732 116.683 394.504 118.032 394.144 119.148C393.792 120.265 393.335 121.205 392.772 121.97ZM413.403 124.277C412.084 124.277 410.946 123.969 409.988 123.354C409.039 122.73 408.305 121.873 407.787 120.783C407.268 119.685 407.009 118.432 407.009 117.026V116.736C407.009 115.33 407.268 114.082 407.787 112.992C408.305 111.893 409.039 111.032 409.988 110.408C410.946 109.784 412.076 109.472 413.376 109.472C414.695 109.472 415.829 109.784 416.778 110.408C417.736 111.032 418.474 111.889 418.993 112.979C419.511 114.068 419.771 115.321 419.771 116.736V117.026C419.771 118.441 419.511 119.698 418.993 120.796C418.474 121.886 417.74 122.739 416.791 123.354C415.842 123.969 414.712 124.277 413.403 124.277ZM413.403 122.247C414.229 122.247 414.919 122.022 415.473 121.574C416.035 121.117 416.457 120.498 416.738 119.715C417.028 118.924 417.173 118.028 417.173 117.026V116.736C417.173 115.734 417.028 114.842 416.738 114.06C416.457 113.269 416.035 112.649 415.473 112.201C414.91 111.744 414.211 111.515 413.376 111.515C412.55 111.515 411.856 111.744 411.293 112.201C410.731 112.649 410.309 113.269 410.028 114.06C409.747 114.842 409.606 115.734 409.606 116.736V117.026C409.606 118.028 409.747 118.924 410.028 119.715C410.309 120.498 410.731 121.117 411.293 121.574C411.865 122.022 412.568 122.247 413.403 122.247ZM430.039 124.277C428.747 124.277 427.622 123.978 426.664 123.38C425.706 122.774 424.963 121.935 424.436 120.862C423.908 119.79 423.645 118.551 423.645 117.145V116.591C423.645 115.237 423.899 114.024 424.409 112.952C424.919 111.88 425.653 111.032 426.611 110.408C427.569 109.784 428.711 109.472 430.039 109.472C431.19 109.472 432.196 109.661 433.058 110.039C433.928 110.417 434.657 110.935 435.246 111.594L435.312 115.022H433.282L432.833 112.53C432.535 112.223 432.161 111.977 431.713 111.792C431.265 111.607 430.737 111.515 430.131 111.515C429.357 111.515 428.676 111.744 428.087 112.201C427.507 112.658 427.055 113.269 426.729 114.033C426.404 114.798 426.242 115.65 426.242 116.591V117.145C426.242 118.182 426.391 119.083 426.69 119.847C426.998 120.612 427.433 121.205 427.995 121.627C428.566 122.04 429.243 122.247 430.025 122.247C430.904 122.247 431.634 122.005 432.214 121.521C432.794 121.038 433.15 120.375 433.282 119.531H435.615L435.642 119.61C435.598 120.427 435.356 121.192 434.917 121.904C434.477 122.616 433.849 123.191 433.031 123.631C432.223 124.062 431.225 124.277 430.039 124.277ZM441.994 124V122.339L444.143 121.97V111.752H441.137L440.939 113.98H438.725V109.735H452.225V113.98H449.997L449.799 111.752H446.74V121.97L448.889 122.339V124H441.994ZM459.711 124.277C458.226 124.277 457.096 123.917 456.323 123.196C455.549 122.466 455.163 121.442 455.163 120.124C455.163 119.219 455.409 118.432 455.901 117.764C456.402 117.087 457.123 116.564 458.063 116.195C459.003 115.817 460.128 115.628 461.438 115.628H463.982V114.231C463.982 113.37 463.719 112.702 463.191 112.227C462.673 111.752 461.939 111.515 460.99 111.515C460.392 111.515 459.874 111.59 459.434 111.739C458.995 111.88 458.595 112.078 458.234 112.333L457.958 114.323H455.954V111.054C456.595 110.535 457.342 110.144 458.195 109.88C459.047 109.608 459.992 109.472 461.029 109.472C462.761 109.472 464.119 109.885 465.103 110.711C466.087 111.537 466.58 112.719 466.58 114.257V121.126C466.58 121.311 466.58 121.491 466.58 121.667C466.588 121.842 466.602 122.018 466.619 122.194L468.003 122.339V124H464.272C464.193 123.613 464.132 123.266 464.088 122.958C464.044 122.651 464.013 122.343 463.996 122.036C463.495 122.677 462.866 123.213 462.11 123.644C461.363 124.066 460.563 124.277 459.711 124.277ZM460.093 122.102C460.955 122.102 461.741 121.895 462.453 121.482C463.165 121.069 463.675 120.572 463.982 119.992V117.408H461.346C460.15 117.408 459.254 117.694 458.656 118.265C458.059 118.836 457.76 119.474 457.76 120.177C457.76 120.801 457.953 121.28 458.34 121.614C458.727 121.939 459.311 122.102 460.093 122.102ZM471.324 124V122.339L473.473 121.97V111.779L471.324 111.41V109.735H473.473H479.089C480.97 109.735 482.429 110.065 483.466 110.724C484.503 111.375 485.021 112.354 485.021 113.664C485.021 114.332 484.819 114.93 484.415 115.457C484.011 115.976 483.439 116.371 482.701 116.644C483.589 116.863 484.283 117.276 484.784 117.883C485.285 118.48 485.536 119.166 485.536 119.939C485.536 121.275 485.048 122.286 484.072 122.972C483.105 123.657 481.748 124 479.999 124H471.324ZM476.07 121.996H479.999C480.965 121.996 481.695 121.816 482.187 121.456C482.679 121.086 482.925 120.559 482.925 119.874C482.925 119.197 482.679 118.674 482.187 118.305C481.695 117.936 480.965 117.751 479.999 117.751H476.07V121.996ZM476.07 115.76H479.102C480.201 115.76 481.027 115.598 481.581 115.272C482.143 114.947 482.424 114.455 482.424 113.796C482.424 112.434 481.312 111.752 479.089 111.752H476.07V115.76ZM488.724 124L488.764 121.785L489.304 121.772C489.928 121.772 490.42 121.579 490.781 121.192C491.141 120.796 491.4 120.164 491.559 119.293C491.717 118.415 491.796 117.259 491.796 115.826V111.779L489.647 111.41V109.735H501.829H503.978V111.41L501.829 111.779V121.97L503.978 122.339V124H497.083V122.339L499.231 121.97V111.792H494.393V115.826C494.393 118.639 494.02 120.704 493.272 122.022C492.534 123.341 491.264 124 489.462 124H488.724ZM507.021 124V122.339L508.893 122.062L511.332 118.081C510.427 117.755 509.728 117.241 509.236 116.538C508.752 115.835 508.511 115.022 508.511 114.099C508.511 113.247 508.73 112.491 509.17 111.832C509.609 111.172 510.238 110.658 511.055 110.289C511.873 109.92 512.848 109.735 513.982 109.735H522.156V111.41L520.007 111.779V121.97L522.156 122.339V124H515.261V122.339L517.41 121.97V118.463H513.89L510.515 124H507.021ZM513.718 116.419H517.41V111.752H513.982C513.042 111.752 512.33 111.99 511.846 112.464C511.363 112.93 511.121 113.484 511.121 114.125C511.121 114.758 511.336 115.299 511.767 115.747C512.207 116.195 512.857 116.419 513.718 116.419ZM531.804 124.277C530.486 124.277 529.339 123.978 528.363 123.38C527.388 122.774 526.632 121.935 526.096 120.862C525.568 119.79 525.305 118.551 525.305 117.145V116.564C525.305 115.211 525.582 114.002 526.135 112.939C526.698 111.867 527.44 111.023 528.363 110.408C529.295 109.784 530.31 109.472 531.409 109.472C532.692 109.472 533.764 109.735 534.625 110.263C535.496 110.79 536.15 111.533 536.59 112.491C537.029 113.44 537.249 114.561 537.249 115.853V117.474H527.994L527.955 117.54C527.972 118.454 528.13 119.267 528.429 119.979C528.737 120.682 529.176 121.236 529.748 121.64C530.319 122.044 531.004 122.247 531.804 122.247C532.683 122.247 533.452 122.124 534.111 121.877C534.779 121.623 535.355 121.275 535.838 120.836L536.854 122.523C536.344 123.016 535.667 123.433 534.823 123.776C533.988 124.11 532.982 124.277 531.804 124.277ZM528.073 115.444H534.652V115.101C534.652 114.416 534.529 113.805 534.283 113.269C534.045 112.724 533.685 112.297 533.202 111.99C532.727 111.673 532.129 111.515 531.409 111.515C530.829 111.515 530.301 111.687 529.827 112.029C529.352 112.363 528.961 112.82 528.653 113.4C528.346 113.98 528.144 114.64 528.047 115.378L528.073 115.444ZM543.443 124V122.339L545.592 121.97V111.752H542.586L542.389 113.98H540.174V109.735H553.674V113.98H551.446L551.248 111.752H548.189V121.97L550.338 122.339V124H543.443ZM564.784 124V122.339L566.933 121.97V111.779L564.784 111.41V109.735H566.933H572.549C574.43 109.735 575.889 110.065 576.926 110.724C577.963 111.375 578.481 112.354 578.481 113.664C578.481 114.332 578.279 114.93 577.875 115.457C577.471 115.976 576.899 116.371 576.161 116.644C577.049 116.863 577.743 117.276 578.244 117.883C578.745 118.48 578.996 119.166 578.996 119.939C578.996 121.275 578.508 122.286 577.532 122.972C576.565 123.657 575.208 124 573.458 124H564.784ZM569.53 121.996H573.458C574.425 121.996 575.155 121.816 575.647 121.456C576.139 121.086 576.385 120.559 576.385 119.874C576.385 119.197 576.139 118.674 575.647 118.305C575.155 117.936 574.425 117.751 573.458 117.751H569.53V121.996ZM569.53 115.76H572.562C573.661 115.76 574.487 115.598 575.041 115.272C575.603 114.947 575.884 114.455 575.884 113.796C575.884 112.434 574.772 111.752 572.549 111.752H569.53V115.76ZM594.588 124.277C593.103 124.277 591.973 123.917 591.2 123.196C590.426 122.466 590.04 121.442 590.04 120.124C590.04 119.219 590.286 118.432 590.778 117.764C591.279 117.087 592 116.564 592.94 116.195C593.88 115.817 595.005 115.628 596.315 115.628H598.859V114.231C598.859 113.37 598.596 112.702 598.068 112.227C597.55 111.752 596.816 111.515 595.867 111.515C595.269 111.515 594.75 111.59 594.311 111.739C593.872 111.88 593.472 112.078 593.111 112.333L592.834 114.323H590.831V111.054C591.472 110.535 592.219 110.144 593.072 109.88C593.924 109.608 594.869 109.472 595.906 109.472C597.638 109.472 598.996 109.885 599.98 110.711C600.964 111.537 601.457 112.719 601.457 114.257V121.126C601.457 121.311 601.457 121.491 601.457 121.667C601.465 121.842 601.479 122.018 601.496 122.194L602.88 122.339V124H599.149C599.07 123.613 599.009 123.266 598.965 122.958C598.921 122.651 598.89 122.343 598.873 122.036C598.372 122.677 597.743 123.213 596.987 123.644C596.24 124.066 595.44 124.277 594.588 124.277ZM594.97 122.102C595.832 122.102 596.618 121.895 597.33 121.482C598.042 121.069 598.552 120.572 598.859 119.992V117.408H596.223C595.027 117.408 594.131 117.694 593.533 118.265C592.936 118.836 592.637 119.474 592.637 120.177C592.637 120.801 592.83 121.28 593.217 121.614C593.604 121.939 594.188 122.102 594.97 122.102ZM605.502 129.484V127.81L607.519 127.441V111.779L605.37 111.41V109.735H609.747L609.984 111.476C610.459 110.825 611.035 110.329 611.711 109.986C612.397 109.643 613.188 109.472 614.084 109.472C615.262 109.472 616.269 109.792 617.104 110.434C617.938 111.067 618.576 111.959 619.015 113.11C619.455 114.253 619.674 115.593 619.674 117.131V117.408C619.674 118.779 619.45 119.979 619.002 121.007C618.562 122.036 617.93 122.84 617.104 123.42C616.277 123.991 615.284 124.277 614.124 124.277C613.245 124.277 612.472 124.132 611.804 123.842C611.145 123.543 610.582 123.104 610.116 122.523V127.441L612.384 127.81V129.484H605.502ZM613.32 122.247C614.55 122.247 615.482 121.798 616.115 120.902C616.748 120.005 617.064 118.841 617.064 117.408V117.131C617.064 116.042 616.923 115.083 616.642 114.257C616.361 113.422 615.939 112.768 615.376 112.293C614.823 111.818 614.128 111.581 613.293 111.581C612.555 111.581 611.922 111.748 611.395 112.082C610.868 112.416 610.441 112.873 610.116 113.453V120.401C610.441 120.99 610.863 121.447 611.382 121.772C611.909 122.088 612.555 122.247 613.32 122.247ZM630.272 124.277C628.954 124.277 627.807 123.978 626.831 123.38C625.855 122.774 625.1 121.935 624.563 120.862C624.036 119.79 623.772 118.551 623.772 117.145V116.564C623.772 115.211 624.049 114.002 624.603 112.939C625.166 111.867 625.908 111.023 626.831 110.408C627.763 109.784 628.778 109.472 629.876 109.472C631.16 109.472 632.232 109.735 633.093 110.263C633.963 110.79 634.618 111.533 635.058 112.491C635.497 113.44 635.717 114.561 635.717 115.853V117.474H626.462L626.422 117.54C626.44 118.454 626.598 119.267 626.897 119.979C627.205 120.682 627.644 121.236 628.215 121.64C628.787 122.044 629.472 122.247 630.272 122.247C631.151 122.247 631.92 122.124 632.579 121.877C633.247 121.623 633.823 121.275 634.306 120.836L635.321 122.523C634.812 123.016 634.135 123.433 633.291 123.776C632.456 124.11 631.45 124.277 630.272 124.277ZM626.541 115.444H633.12V115.101C633.12 114.416 632.997 113.805 632.75 113.269C632.513 112.724 632.153 112.297 631.669 111.99C631.195 111.673 630.597 111.515 629.876 111.515C629.296 111.515 628.769 111.687 628.294 112.029C627.82 112.363 627.429 112.82 627.121 113.4C626.813 113.98 626.611 114.64 626.515 115.378L626.541 115.444ZM639.05 124V122.339L641.199 121.97V111.779L639.05 111.41V109.735H645.945V111.41L643.796 111.779V115.905H650.138V111.779L647.989 111.41V109.735H650.138H652.748H654.897V111.41L652.748 111.779V121.97L654.897 122.339V124H647.989V122.339L650.138 121.97V117.936H643.796V121.97L645.945 122.339V124H639.05ZM658.296 128.192L658.046 121.97H659.167C659.536 121.548 659.856 121.13 660.129 120.717C660.401 120.295 660.639 119.834 660.841 119.333C661.043 118.823 661.206 118.23 661.329 117.553C661.46 116.868 661.557 116.05 661.619 115.101L661.75 111.766L659.681 111.41V109.735H671.15H673.299V111.41L671.15 111.779V121.97H673.049L672.785 128.192H670.452V124H660.63V128.192H658.296ZM662.159 121.97H668.553V112.042H664.334L664.216 115.101C664.119 116.683 663.891 118.032 663.53 119.148C663.179 120.265 662.722 121.205 662.159 121.97ZM679.441 129.761C679.239 129.761 678.975 129.735 678.65 129.682C678.325 129.638 678.074 129.594 677.898 129.55L678.162 127.507C678.312 127.524 678.518 127.538 678.782 127.546C679.045 127.564 679.226 127.573 679.322 127.573C679.876 127.573 680.324 127.362 680.667 126.94C681.019 126.518 681.344 125.942 681.643 125.213L682.262 123.71L677.213 111.621L675.684 111.41V109.735H681.669V111.41L679.942 111.673L682.724 118.806L683.396 120.665H683.475L686.771 111.673L684.952 111.41V109.735H690.818V111.41L689.342 111.621L683.726 126.188C683.462 126.874 683.141 127.485 682.763 128.021C682.394 128.566 681.937 128.992 681.392 129.3C680.856 129.607 680.206 129.761 679.441 129.761ZM707.228 124.277C705.936 124.277 704.811 123.978 703.853 123.38C702.895 122.774 702.152 121.935 701.625 120.862C701.098 119.79 700.834 118.551 700.834 117.145V116.591C700.834 115.237 701.089 114.024 701.599 112.952C702.108 111.88 702.842 111.032 703.8 110.408C704.758 109.784 705.901 109.472 707.228 109.472C708.379 109.472 709.386 109.661 710.247 110.039C711.117 110.417 711.847 110.935 712.436 111.594L712.501 115.022H710.471L710.023 112.53C709.724 112.223 709.351 111.977 708.902 111.792C708.454 111.607 707.927 111.515 707.32 111.515C706.547 111.515 705.866 111.744 705.277 112.201C704.697 112.658 704.244 113.269 703.919 114.033C703.594 114.798 703.431 115.65 703.431 116.591V117.145C703.431 118.182 703.581 119.083 703.879 119.847C704.187 120.612 704.622 121.205 705.185 121.627C705.756 122.04 706.433 122.247 707.215 122.247C708.094 122.247 708.823 122.005 709.403 121.521C709.983 121.038 710.339 120.375 710.471 119.531H712.805L712.831 119.61C712.787 120.427 712.545 121.192 712.106 121.904C711.667 122.616 711.038 123.191 710.221 123.631C709.412 124.062 708.415 124.277 707.228 124.277ZM716.165 124V122.339L718.313 121.97V111.779L716.165 111.41V109.735H718.313H723.93C725.811 109.735 727.27 110.065 728.307 110.724C729.344 111.375 729.862 112.354 729.862 113.664C729.862 114.332 729.66 114.93 729.256 115.457C728.852 115.976 728.28 116.371 727.542 116.644C728.43 116.863 729.124 117.276 729.625 117.883C730.126 118.48 730.376 119.166 730.376 119.939C730.376 121.275 729.889 122.286 728.913 122.972C727.946 123.657 726.588 124 724.839 124H716.165ZM720.911 121.996H724.839C725.806 121.996 726.536 121.816 727.028 121.456C727.52 121.086 727.766 120.559 727.766 119.874C727.766 119.197 727.52 118.674 727.028 118.305C726.536 117.936 725.806 117.751 724.839 117.751H720.911V121.996ZM720.911 115.76H723.943C725.042 115.76 725.868 115.598 726.421 115.272C726.984 114.947 727.265 114.455 727.265 113.796C727.265 112.434 726.153 111.752 723.93 111.752H720.911V115.76ZM740.078 124.277C738.759 124.277 737.621 123.969 736.663 123.354C735.714 122.73 734.98 121.873 734.461 120.783C733.943 119.685 733.684 118.432 733.684 117.026V116.736C733.684 115.33 733.943 114.082 734.461 112.992C734.98 111.893 735.714 111.032 736.663 110.408C737.621 109.784 738.75 109.472 740.051 109.472C741.37 109.472 742.503 109.784 743.453 110.408C744.411 111.032 745.149 111.889 745.667 112.979C746.186 114.068 746.445 115.321 746.445 116.736V117.026C746.445 118.441 746.186 119.698 745.667 120.796C745.149 121.886 744.415 122.739 743.466 123.354C742.517 123.969 741.387 124.277 740.078 124.277ZM740.078 122.247C740.904 122.247 741.594 122.022 742.147 121.574C742.71 121.117 743.132 120.498 743.413 119.715C743.703 118.924 743.848 118.028 743.848 117.026V116.736C743.848 115.734 743.703 114.842 743.413 114.06C743.132 113.269 742.71 112.649 742.147 112.201C741.585 111.744 740.886 111.515 740.051 111.515C739.225 111.515 738.531 111.744 737.968 112.201C737.406 112.649 736.984 113.269 736.703 114.06C736.421 114.842 736.281 115.734 736.281 116.736V117.026C736.281 118.028 736.421 118.924 736.703 119.715C736.984 120.498 737.406 121.117 737.968 121.574C738.54 122.022 739.243 122.247 740.078 122.247ZM750.095 124V122.339L752.244 121.97V111.779L750.095 111.41V109.735H754.828H756.977V111.41L754.828 111.779V119.834L754.907 119.86L761.196 109.735H763.793H765.942V111.41L763.793 111.779V121.97L765.942 122.339V124H759.047V122.339L761.196 121.97V113.901L761.117 113.875L754.828 124H750.095ZM769.5 124V122.339L771.648 121.97V111.779L769.5 111.41V109.735H771.648H774.997L779.638 120.599H779.717L784.371 109.735H787.627H789.776V111.41L787.627 111.779V121.97L789.776 122.339V124H782.881V122.339L785.03 121.97V114.099L784.951 114.073L780.574 124H778.781L774.325 113.862L774.246 113.888V121.97L776.395 122.339V124H769.5ZM800.952 124V122.339L803.101 121.97V111.779L800.952 111.41V109.735H807.847V111.41L805.698 111.779V115.76H807.069L810.048 111.766C810.584 111.019 811.107 110.452 811.617 110.065C812.136 109.678 812.716 109.485 813.357 109.485C813.762 109.485 814.096 109.538 814.359 109.643C814.623 109.74 814.922 109.894 815.256 110.104L814.887 111.871C814.509 111.81 814.289 111.774 814.228 111.766C814.175 111.757 814.061 111.752 813.885 111.752C813.56 111.752 813.239 111.871 812.922 112.108C812.615 112.346 812.342 112.627 812.105 112.952L809.35 116.525L813.845 122.009L815.678 122.339V124H812.21L807.385 117.949H805.698V121.97L807.847 122.339V124H800.952ZM818.247 124L818.286 121.785L818.827 121.772C819.451 121.772 819.943 121.579 820.303 121.192C820.664 120.796 820.923 120.164 821.081 119.293C821.239 118.415 821.318 117.259 821.318 115.826V111.779L819.169 111.41V109.735H831.351H833.5V111.41L831.351 111.779V121.97L833.5 122.339V124H826.605V122.339L828.754 121.97V111.792H823.916V115.826C823.916 118.639 823.542 120.704 822.795 122.022C822.057 123.341 820.787 124 818.985 124H818.247ZM836.965 124V122.339L839.114 121.97V111.779L836.965 111.41V109.735H841.698H843.847V111.41L841.698 111.779V119.834L841.777 119.86L848.066 109.735H850.663H852.812V111.41L850.663 111.779V121.97L852.812 122.339V124H845.917V122.339L848.066 121.97V113.901L847.987 113.875L841.698 124H836.965ZM862.566 124.277C861.248 124.277 860.101 123.978 859.125 123.38C858.149 122.774 857.394 121.935 856.857 120.862C856.33 119.79 856.066 118.551 856.066 117.145V116.564C856.066 115.211 856.343 114.002 856.897 112.939C857.459 111.867 858.202 111.023 859.125 110.408C860.057 109.784 861.072 109.472 862.17 109.472C863.454 109.472 864.526 109.735 865.387 110.263C866.257 110.79 866.912 111.533 867.352 112.491C867.791 113.44 868.011 114.561 868.011 115.853V117.474H858.756L858.716 117.54C858.734 118.454 858.892 119.267 859.191 119.979C859.499 120.682 859.938 121.236 860.509 121.64C861.081 122.044 861.766 122.247 862.566 122.247C863.445 122.247 864.214 122.124 864.873 121.877C865.541 121.623 866.117 121.275 866.6 120.836L867.615 122.523C867.105 123.016 866.429 123.433 865.585 123.776C864.75 124.11 863.744 124.277 862.566 124.277ZM858.835 115.444H865.414V115.101C865.414 114.416 865.291 113.805 865.044 113.269C864.807 112.724 864.447 112.297 863.963 111.99C863.489 111.673 862.891 111.515 862.17 111.515C861.59 111.515 861.063 111.687 860.588 112.029C860.114 112.363 859.723 112.82 859.415 113.4C859.107 113.98 858.905 114.64 858.809 115.378L858.835 115.444ZM871.344 124V122.339L873.493 121.97V111.779L871.344 111.41V109.735H878.239V111.41L876.09 111.779V115.905H882.432V111.779L880.283 111.41V109.735H882.432H885.042H887.191V111.41L885.042 111.779V121.97L887.191 122.339V124H880.283V122.339L882.432 121.97V117.936H876.09V121.97L878.239 122.339V124H871.344ZM893.768 124V122.339L895.917 121.97V111.752H892.911L892.713 113.98H890.498V109.735H903.998V113.98H901.77L901.572 111.752H898.514V121.97L900.663 122.339V124H893.768ZM911.484 124.277C909.999 124.277 908.87 123.917 908.096 123.196C907.323 122.466 906.936 121.442 906.936 120.124C906.936 119.219 907.182 118.432 907.674 117.764C908.175 117.087 908.896 116.564 909.836 116.195C910.777 115.817 911.902 115.628 913.211 115.628H915.756V114.231C915.756 113.37 915.492 112.702 914.965 112.227C914.446 111.752 913.712 111.515 912.763 111.515C912.166 111.515 911.647 111.59 911.208 111.739C910.768 111.88 910.368 112.078 910.008 112.333L909.731 114.323H907.727V111.054C908.369 110.535 909.116 110.144 909.968 109.88C910.821 109.608 911.766 109.472 912.803 109.472C914.534 109.472 915.892 109.885 916.876 110.711C917.861 111.537 918.353 112.719 918.353 114.257V121.126C918.353 121.311 918.353 121.491 918.353 121.667C918.362 121.842 918.375 122.018 918.393 122.194L919.777 122.339V124H916.046C915.967 123.613 915.905 123.266 915.861 122.958C915.817 122.651 915.787 122.343 915.769 122.036C915.268 122.677 914.64 123.213 913.884 123.644C913.137 124.066 912.337 124.277 911.484 124.277ZM911.867 122.102C912.728 122.102 913.515 121.895 914.227 121.482C914.938 121.069 915.448 120.572 915.756 119.992V117.408H913.119C911.924 117.408 911.027 117.694 910.43 118.265C909.832 118.836 909.533 119.474 909.533 120.177C909.533 120.801 909.727 121.28 910.113 121.614C910.5 121.939 911.084 122.102 911.867 122.102ZM923.097 124V122.339L925.246 121.97V111.779L923.097 111.41V109.735H925.246H928.595L933.235 120.599H933.314L937.968 109.735H941.225H943.374V111.41L941.225 111.779V121.97L943.374 122.339V124H936.479V122.339L938.627 121.97V114.099L938.548 114.073L934.171 124H932.378L927.922 113.862L927.843 113.888V121.97L929.992 122.339V124H923.097ZM954.549 124V122.339L956.698 121.97V111.779L954.549 111.41V109.735H961.444V111.41L959.295 111.779V115.76H960.667L963.646 111.766C964.182 111.019 964.705 110.452 965.215 110.065C965.733 109.678 966.313 109.485 966.955 109.485C967.359 109.485 967.693 109.538 967.957 109.643C968.221 109.74 968.52 109.894 968.854 110.104L968.484 111.871C968.106 111.81 967.887 111.774 967.825 111.766C967.772 111.757 967.658 111.752 967.482 111.752C967.157 111.752 966.836 111.871 966.52 112.108C966.212 112.346 965.94 112.627 965.703 112.952L962.947 116.525L967.443 122.009L969.275 122.339V124H965.808L960.983 117.949H959.295V121.97L961.444 122.339V124H954.549ZM977.671 124.277C976.353 124.277 975.215 123.969 974.257 123.354C973.308 122.73 972.574 121.873 972.055 120.783C971.537 119.685 971.277 118.432 971.277 117.026V116.736C971.277 115.33 971.537 114.082 972.055 112.992C972.574 111.893 973.308 111.032 974.257 110.408C975.215 109.784 976.344 109.472 977.645 109.472C978.963 109.472 980.097 109.784 981.046 110.408C982.004 111.032 982.743 111.889 983.261 112.979C983.78 114.068 984.039 115.321 984.039 116.736V117.026C984.039 118.441 983.78 119.698 983.261 120.796C982.743 121.886 982.009 122.739 981.06 123.354C980.11 123.969 978.981 124.277 977.671 124.277ZM977.671 122.247C978.498 122.247 979.188 122.022 979.741 121.574C980.304 121.117 980.726 120.498 981.007 119.715C981.297 118.924 981.442 118.028 981.442 117.026V116.736C981.442 115.734 981.297 114.842 981.007 114.06C980.726 113.269 980.304 112.649 979.741 112.201C979.179 111.744 978.48 111.515 977.645 111.515C976.819 111.515 976.125 111.744 975.562 112.201C975 112.649 974.578 113.269 974.296 114.06C974.015 114.842 973.875 115.734 973.875 116.736V117.026C973.875 118.028 974.015 118.924 974.296 119.715C974.578 120.498 975 121.117 975.562 121.574C976.133 122.022 976.836 122.247 977.671 122.247ZM987.689 124V122.339L989.838 121.97V111.779L987.689 111.41V109.735H994.584V111.41L992.435 111.779V115.905H998.776V111.779L996.627 111.41V109.735H998.776H1001.39H1003.54V111.41L1001.39 111.779V121.97L1003.54 122.339V124H996.627V122.339L998.776 121.97V117.936H992.435V121.97L994.584 122.339V124H987.689ZM1010.11 124V122.339L1012.26 121.97V111.752H1009.26L1009.06 113.98H1006.84V109.735H1020.34V113.98H1018.11L1017.92 111.752H1014.86V121.97L1017.01 122.339V124H1010.11ZM1028.87 124.277C1027.55 124.277 1026.41 123.978 1025.43 123.38C1024.45 122.774 1023.7 121.935 1023.16 120.862C1022.63 119.79 1022.37 118.551 1022.37 117.145V116.564C1022.37 115.211 1022.65 114.002 1023.2 112.939C1023.76 111.867 1024.51 111.023 1025.43 110.408C1026.36 109.784 1027.38 109.472 1028.48 109.472C1029.76 109.472 1030.83 109.735 1031.69 110.263C1032.56 110.79 1033.22 111.533 1033.66 112.491C1034.1 113.44 1034.32 114.561 1034.32 115.853V117.474H1025.06L1025.02 117.54C1025.04 118.454 1025.2 119.267 1025.5 119.979C1025.8 120.682 1026.24 121.236 1026.81 121.64C1027.39 122.044 1028.07 122.247 1028.87 122.247C1029.75 122.247 1030.52 122.124 1031.18 121.877C1031.85 121.623 1032.42 121.275 1032.9 120.836L1033.92 122.523C1033.41 123.016 1032.73 123.433 1031.89 123.776C1031.05 124.11 1030.05 124.277 1028.87 124.277ZM1025.14 115.444H1031.72V115.101C1031.72 114.416 1031.6 113.805 1031.35 113.269C1031.11 112.724 1030.75 112.297 1030.27 111.99C1029.79 111.673 1029.2 111.515 1028.48 111.515C1027.9 111.515 1027.37 111.687 1026.89 112.029C1026.42 112.363 1026.03 112.82 1025.72 113.4C1025.41 113.98 1025.21 114.64 1025.11 115.378L1025.14 115.444ZM1037.65 124V122.339L1039.8 121.97V111.779L1037.65 111.41V109.735H1042.38H1044.53V111.41L1042.38 111.779V119.834L1042.46 119.86L1048.75 109.735H1051.35H1053.5V111.41L1051.35 111.779V121.97L1053.5 122.339V124H1046.6V122.339L1048.75 121.97V113.901L1048.67 113.875L1042.38 124H1037.65ZM1045.65 107.23C1044.38 107.23 1043.38 106.888 1042.65 106.202C1041.92 105.508 1041.55 104.611 1041.55 103.513L1041.58 103.434H1043.56C1043.56 104.066 1043.72 104.581 1044.06 104.976C1044.4 105.372 1044.93 105.569 1045.65 105.569C1046.35 105.569 1046.88 105.372 1047.22 104.976C1047.56 104.581 1047.73 104.066 1047.73 103.434H1049.73L1049.75 103.513C1049.74 104.611 1049.37 105.508 1048.64 106.202C1047.92 106.888 1046.93 107.23 1045.65 107.23ZM1057.05 124V122.339L1059.2 121.97V111.779L1057.05 111.41V109.735H1063.95V111.41L1061.8 111.779V115.905H1068.14V111.779L1065.99 111.41V109.735H1068.14H1070.75H1072.9V111.41L1070.75 111.779V121.97L1072.9 122.339V124H1065.99V122.339L1068.14 121.97V117.936H1061.8V121.97L1063.95 122.339V124H1057.05ZM1082.65 124.277C1081.34 124.277 1080.19 123.978 1079.21 123.38C1078.24 122.774 1077.48 121.935 1076.95 120.862C1076.42 119.79 1076.15 118.551 1076.15 117.145V116.564C1076.15 115.211 1076.43 114.002 1076.98 112.939C1077.55 111.867 1078.29 111.023 1079.21 110.408C1080.14 109.784 1081.16 109.472 1082.26 109.472C1083.54 109.472 1084.61 109.735 1085.48 110.263C1086.35 110.79 1087 111.533 1087.44 112.491C1087.88 113.44 1088.1 114.561 1088.1 115.853V117.474H1078.84L1078.8 117.54C1078.82 118.454 1078.98 119.267 1079.28 119.979C1079.59 120.682 1080.03 121.236 1080.6 121.64C1081.17 122.044 1081.85 122.247 1082.65 122.247C1083.53 122.247 1084.3 122.124 1084.96 121.877C1085.63 121.623 1086.2 121.275 1086.69 120.836L1087.7 122.523C1087.19 123.016 1086.52 123.433 1085.67 123.776C1084.84 124.11 1083.83 124.277 1082.65 124.277ZM1078.92 115.444H1085.5V115.101C1085.5 114.416 1085.38 113.805 1085.13 113.269C1084.9 112.724 1084.53 112.297 1084.05 111.99C1083.58 111.673 1082.98 111.515 1082.26 111.515C1081.68 111.515 1081.15 111.687 1080.68 112.029C1080.2 112.363 1079.81 112.82 1079.5 113.4C1079.2 113.98 1078.99 114.64 1078.9 115.378L1078.92 115.444ZM1090.73 129.484V127.81L1092.75 127.441V111.779L1090.6 111.41V109.735H1094.98L1095.22 111.476C1095.69 110.825 1096.27 110.329 1096.94 109.986C1097.63 109.643 1098.42 109.472 1099.32 109.472C1100.49 109.472 1101.5 109.792 1102.33 110.434C1103.17 111.067 1103.81 111.959 1104.25 113.11C1104.69 114.253 1104.91 115.593 1104.91 117.131V117.408C1104.91 118.779 1104.68 119.979 1104.23 121.007C1103.79 122.036 1103.16 122.84 1102.33 123.42C1101.51 123.991 1100.52 124.277 1099.36 124.277C1098.48 124.277 1097.7 124.132 1097.04 123.842C1096.38 123.543 1095.81 123.104 1095.35 122.523V127.441L1097.62 127.81V129.484H1090.73ZM1098.55 122.247C1099.78 122.247 1100.71 121.798 1101.35 120.902C1101.98 120.005 1102.3 118.841 1102.3 117.408V117.131C1102.3 116.042 1102.15 115.083 1101.87 114.257C1101.59 113.422 1101.17 112.768 1100.61 112.293C1100.05 111.818 1099.36 111.581 1098.52 111.581C1097.79 111.581 1097.15 111.748 1096.63 112.082C1096.1 112.416 1095.67 112.873 1095.35 113.453V120.401C1095.67 120.99 1096.09 121.447 1096.61 121.772C1097.14 122.088 1097.79 122.247 1098.55 122.247ZM1113.09 124.277C1111.61 124.277 1110.48 123.917 1109.7 123.196C1108.93 122.466 1108.54 121.442 1108.54 120.124C1108.54 119.219 1108.79 118.432 1109.28 117.764C1109.78 117.087 1110.5 116.564 1111.44 116.195C1112.38 115.817 1113.51 115.628 1114.82 115.628H1117.36V114.231C1117.36 113.37 1117.1 112.702 1116.57 112.227C1116.05 111.752 1115.32 111.515 1114.37 111.515C1113.77 111.515 1113.25 111.59 1112.81 111.739C1112.37 111.88 1111.97 112.078 1111.61 112.333L1111.34 114.323H1109.33V111.054C1109.98 110.535 1110.72 110.144 1111.57 109.88C1112.43 109.608 1113.37 109.472 1114.41 109.472C1116.14 109.472 1117.5 109.885 1118.48 110.711C1119.47 111.537 1119.96 112.719 1119.96 114.257V121.126C1119.96 121.311 1119.96 121.491 1119.96 121.667C1119.97 121.842 1119.98 122.018 1120 122.194L1121.38 122.339V124H1117.65C1117.57 123.613 1117.51 123.266 1117.47 122.958C1117.42 122.651 1117.39 122.343 1117.38 122.036C1116.87 122.677 1116.25 123.213 1115.49 123.644C1114.74 124.066 1113.94 124.277 1113.09 124.277ZM1113.47 122.102C1114.33 122.102 1115.12 121.895 1115.83 121.482C1116.54 121.069 1117.05 120.572 1117.36 119.992V117.408H1114.73C1113.53 117.408 1112.63 117.694 1112.04 118.265C1111.44 118.836 1111.14 119.474 1111.14 120.177C1111.14 120.801 1111.33 121.28 1111.72 121.614C1112.11 121.939 1112.69 122.102 1113.47 122.102ZM1132.43 124V122.339L1134.58 121.97V111.779L1132.43 111.41V109.735H1134.58H1140.19C1142.07 109.735 1143.53 110.065 1144.57 110.724C1145.61 111.375 1146.12 112.354 1146.12 113.664C1146.12 114.332 1145.92 114.93 1145.52 115.457C1145.11 115.976 1144.54 116.371 1143.8 116.644C1144.69 116.863 1145.39 117.276 1145.89 117.883C1146.39 118.48 1146.64 119.166 1146.64 119.939C1146.64 121.275 1146.15 122.286 1145.18 122.972C1144.21 123.657 1142.85 124 1141.1 124H1132.43ZM1137.17 121.996H1141.1C1142.07 121.996 1142.8 121.816 1143.29 121.456C1143.78 121.086 1144.03 120.559 1144.03 119.874C1144.03 119.197 1143.78 118.674 1143.29 118.305C1142.8 117.936 1142.07 117.751 1141.1 117.751H1137.17V121.996ZM1137.17 115.76H1140.21C1141.3 115.76 1142.13 115.598 1142.68 115.272C1143.25 114.947 1143.53 114.455 1143.53 113.796C1143.53 112.434 1142.42 111.752 1140.19 111.752H1137.17V115.76ZM34.2788 154V152.339L36.4277 151.97V141.779L34.2788 141.41V139.735H36.4277H39.7764L44.417 150.599H44.4961L49.1499 139.735H52.4062H54.5552V141.41L52.4062 141.779V151.97L54.5552 152.339V154H47.6602V152.339L49.8091 151.97V144.099L49.73 144.073L45.353 154H43.5601L39.104 143.862L39.0249 143.888V151.97L41.1738 152.339V154H34.2788ZM64.2036 154.277C62.8853 154.277 61.7383 153.978 60.7627 153.38C59.7871 152.774 59.0312 151.935 58.4951 150.862C57.9678 149.79 57.7041 148.551 57.7041 147.145V146.564C57.7041 145.211 57.981 144.002 58.5347 142.939C59.0972 141.867 59.8398 141.023 60.7627 140.408C61.6943 139.784 62.7095 139.472 63.8081 139.472C65.0913 139.472 66.1636 139.735 67.0249 140.263C67.895 140.79 68.5498 141.533 68.9893 142.491C69.4287 143.44 69.6484 144.561 69.6484 145.853V147.474H60.3936L60.354 147.54C60.3716 148.454 60.5298 149.267 60.8286 149.979C61.1362 150.682 61.5757 151.236 62.147 151.64C62.7183 152.044 63.4038 152.247 64.2036 152.247C65.0825 152.247 65.8516 152.124 66.5107 151.877C67.1787 151.623 67.7544 151.275 68.2378 150.836L69.2529 152.523C68.7432 153.016 68.0664 153.433 67.2227 153.776C66.3877 154.11 65.3813 154.277 64.2036 154.277ZM60.4727 145.444H67.0513V145.101C67.0513 144.416 66.9282 143.805 66.6821 143.269C66.4448 142.724 66.0845 142.297 65.6011 141.99C65.1265 141.673 64.5288 141.515 63.8081 141.515C63.228 141.515 62.7007 141.687 62.2261 142.029C61.7515 142.363 61.3604 142.82 61.0527 143.4C60.7451 143.98 60.543 144.64 60.4463 145.378L60.4727 145.444ZM72.2173 154V152.339L74.2476 152.049L77.9521 146.538L75.5659 142.952C75.311 142.574 75.0386 142.28 74.7485 142.069C74.4673 141.858 74.1465 141.752 73.7861 141.752C73.6016 141.752 73.4829 141.757 73.4302 141.766C73.3774 141.774 73.1621 141.81 72.7842 141.871L72.415 140.104C72.7402 139.894 73.0347 139.74 73.2983 139.643C73.562 139.538 73.9004 139.485 74.3135 139.485C74.9727 139.485 75.5747 139.683 76.1196 140.078C76.6733 140.474 77.1699 141.036 77.6094 141.766L80.0747 145.76H81.6436V141.779L79.4946 141.41V139.735H86.3896V141.41L84.2407 141.779V145.76H85.9414L88.4067 141.766C88.8374 141.036 89.3252 140.474 89.8701 140.078C90.4238 139.683 91.0391 139.485 91.7158 139.485C92.1201 139.485 92.4541 139.538 92.7178 139.643C92.9902 139.749 93.2847 139.902 93.6011 140.104L93.2451 141.871C92.8672 141.81 92.6475 141.774 92.5859 141.766C92.5332 141.757 92.4189 141.752 92.2432 141.752C91.874 141.752 91.5444 141.858 91.2544 142.069C90.9644 142.28 90.7007 142.574 90.4634 142.952L87.998 146.644L91.6499 152.049L93.667 152.339V154H89.6855L85.981 147.949H84.2407V151.97L86.3896 152.339V154H79.4946V152.339L81.6436 151.97V147.949H79.8901L76.1987 154H72.2173ZM96.605 158.192L96.3545 151.97H97.4751C97.8442 151.548 98.165 151.13 98.4375 150.717C98.71 150.295 98.9473 149.834 99.1494 149.333C99.3516 148.823 99.5142 148.23 99.6372 147.553C99.769 146.868 99.8657 146.05 99.9272 145.101L100.059 141.766L97.9893 141.41V139.735H109.459H111.608V141.41L109.459 141.779V151.97H111.357L111.094 158.192H108.76V154H98.9385V158.192H96.605ZM100.468 151.97H106.862V142.042H102.643L102.524 145.101C102.428 146.683 102.199 148.032 101.839 149.148C101.487 150.265 101.03 151.205 100.468 151.97ZM117.75 159.761C117.547 159.761 117.284 159.735 116.958 159.682C116.633 159.638 116.383 159.594 116.207 159.55L116.471 157.507C116.62 157.524 116.827 157.538 117.09 157.546C117.354 157.564 117.534 157.573 117.631 157.573C118.185 157.573 118.633 157.362 118.976 156.94C119.327 156.518 119.652 155.942 119.951 155.213L120.571 153.71L115.521 141.621L113.992 141.41V139.735H119.978V141.41L118.25 141.673L121.032 148.806L121.705 150.665H121.784L125.08 141.673L123.26 141.41V139.735H129.127V141.41L127.65 141.621L122.034 156.188C121.771 156.874 121.45 157.485 121.072 158.021C120.703 158.566 120.246 158.992 119.701 159.3C119.165 159.607 118.514 159.761 117.75 159.761ZM131.669 154V152.339L133.818 151.97V141.779L131.669 141.41V139.735H138.564V141.41L136.416 141.779V145.905H142.757V141.779L140.608 141.41V139.735H142.757H145.367H147.516V141.41L145.367 141.779V151.97L147.516 152.339V154H140.608V152.339L142.757 151.97V147.936H136.416V151.97L138.564 152.339V154H131.669ZM155.385 154.277C153.899 154.277 152.77 153.917 151.997 153.196C151.223 152.466 150.836 151.442 150.836 150.124C150.836 149.219 151.083 148.432 151.575 147.764C152.076 147.087 152.796 146.564 153.737 146.195C154.677 145.817 155.802 145.628 157.112 145.628H159.656V144.231C159.656 143.37 159.393 142.702 158.865 142.227C158.347 141.752 157.613 141.515 156.664 141.515C156.066 141.515 155.547 141.59 155.108 141.739C154.668 141.88 154.269 142.078 153.908 142.333L153.631 144.323H151.627V141.054C152.269 140.535 153.016 140.144 153.869 139.88C154.721 139.608 155.666 139.472 156.703 139.472C158.435 139.472 159.792 139.885 160.777 140.711C161.761 141.537 162.253 142.719 162.253 144.257V151.126C162.253 151.311 162.253 151.491 162.253 151.667C162.262 151.842 162.275 152.018 162.293 152.194L163.677 152.339V154H159.946C159.867 153.613 159.806 153.266 159.762 152.958C159.718 152.651 159.687 152.343 159.669 152.036C159.168 152.677 158.54 153.213 157.784 153.644C157.037 154.066 156.237 154.277 155.385 154.277ZM155.767 152.102C156.628 152.102 157.415 151.895 158.127 151.482C158.839 151.069 159.349 150.572 159.656 149.992V147.408H157.02C155.824 147.408 154.928 147.694 154.33 148.265C153.732 148.836 153.434 149.474 153.434 150.177C153.434 150.801 153.627 151.28 154.014 151.614C154.4 151.939 154.985 152.102 155.767 152.102ZM166.299 159.484V157.81L168.316 157.441V141.779L166.167 141.41V139.735H170.544L170.781 141.476C171.256 140.825 171.832 140.329 172.508 139.986C173.194 139.643 173.985 139.472 174.881 139.472C176.059 139.472 177.065 139.792 177.9 140.434C178.735 141.067 179.373 141.959 179.812 143.11C180.251 144.253 180.471 145.593 180.471 147.131V147.408C180.471 148.779 180.247 149.979 179.799 151.007C179.359 152.036 178.727 152.84 177.9 153.42C177.074 153.991 176.081 154.277 174.921 154.277C174.042 154.277 173.269 154.132 172.601 153.842C171.941 153.543 171.379 153.104 170.913 152.523V157.441L173.181 157.81V159.484H166.299ZM174.117 152.247C175.347 152.247 176.279 151.798 176.912 150.902C177.544 150.005 177.861 148.841 177.861 147.408V147.131C177.861 146.042 177.72 145.083 177.439 144.257C177.158 143.422 176.736 142.768 176.173 142.293C175.62 141.818 174.925 141.581 174.09 141.581C173.352 141.581 172.719 141.748 172.192 142.082C171.665 142.416 171.238 142.873 170.913 143.453V150.401C171.238 150.99 171.66 151.447 172.179 151.772C172.706 152.088 173.352 152.247 174.117 152.247ZM191.016 154.277C189.698 154.277 188.56 153.969 187.602 153.354C186.652 152.73 185.918 151.873 185.4 150.783C184.881 149.685 184.622 148.432 184.622 147.026V146.736C184.622 145.33 184.881 144.082 185.4 142.992C185.918 141.893 186.652 141.032 187.602 140.408C188.56 139.784 189.689 139.472 190.99 139.472C192.308 139.472 193.442 139.784 194.391 140.408C195.349 141.032 196.087 141.889 196.606 142.979C197.125 144.068 197.384 145.321 197.384 146.736V147.026C197.384 148.441 197.125 149.698 196.606 150.796C196.087 151.886 195.354 152.739 194.404 153.354C193.455 153.969 192.326 154.277 191.016 154.277ZM191.016 152.247C191.842 152.247 192.532 152.022 193.086 151.574C193.648 151.117 194.07 150.498 194.352 149.715C194.642 148.924 194.787 148.028 194.787 147.026V146.736C194.787 145.734 194.642 144.842 194.352 144.06C194.07 143.269 193.648 142.649 193.086 142.201C192.523 141.744 191.825 141.515 190.99 141.515C190.164 141.515 189.469 141.744 188.907 142.201C188.344 142.649 187.922 143.269 187.641 144.06C187.36 144.842 187.219 145.734 187.219 146.736V147.026C187.219 148.028 187.36 148.924 187.641 149.715C187.922 150.498 188.344 151.117 188.907 151.574C189.478 152.022 190.181 152.247 191.016 152.247ZM199.926 158.192L199.676 151.97H200.796C201.166 151.548 201.486 151.13 201.759 150.717C202.031 150.295 202.269 149.834 202.471 149.333C202.673 148.823 202.835 148.23 202.958 147.553C203.09 146.868 203.187 146.05 203.249 145.101L203.38 141.766L201.311 141.41V139.735H212.78H214.929V141.41L212.78 141.779V151.97H214.679L214.415 158.192H212.082V154H202.26V158.192H199.926ZM203.789 151.97H210.183V142.042H205.964L205.846 145.101C205.749 146.683 205.521 148.032 205.16 149.148C204.809 150.265 204.352 151.205 203.789 151.97ZM218.276 154V152.339L220.425 151.97V141.779L218.276 141.41V139.735H225.171V141.41L223.022 141.779V145.905H229.363V141.779L227.214 141.41V139.735H229.363H231.974H234.123V141.41L231.974 141.779V151.97L234.123 152.339V154H227.214V152.339L229.363 151.97V147.936H223.022V151.97L225.171 152.339V154H218.276ZM243.824 154.277C242.505 154.277 241.367 153.969 240.409 153.354C239.46 152.73 238.726 151.873 238.208 150.783C237.689 149.685 237.43 148.432 237.43 147.026V146.736C237.43 145.33 237.689 144.082 238.208 142.992C238.726 141.893 239.46 141.032 240.409 140.408C241.367 139.784 242.497 139.472 243.797 139.472C245.116 139.472 246.25 139.784 247.199 140.408C248.157 141.032 248.895 141.889 249.414 142.979C249.932 144.068 250.191 145.321 250.191 146.736V147.026C250.191 148.441 249.932 149.698 249.414 150.796C248.895 151.886 248.161 152.739 247.212 153.354C246.263 153.969 245.133 154.277 243.824 154.277ZM243.824 152.247C244.65 152.247 245.34 152.022 245.894 151.574C246.456 151.117 246.878 150.498 247.159 149.715C247.449 148.924 247.594 148.028 247.594 147.026V146.736C247.594 145.734 247.449 144.842 247.159 144.06C246.878 143.269 246.456 142.649 245.894 142.201C245.331 141.744 244.632 141.515 243.797 141.515C242.971 141.515 242.277 141.744 241.714 142.201C241.152 142.649 240.73 143.269 240.449 144.06C240.167 144.842 240.027 145.734 240.027 146.736V147.026C240.027 148.028 240.167 148.924 240.449 149.715C240.73 150.498 241.152 151.117 241.714 151.574C242.286 152.022 242.989 152.247 243.824 152.247ZM253.841 154V152.339L255.99 151.97V141.779L253.841 141.41V139.735H255.99H259.339L263.979 150.599H264.059L268.712 139.735H271.969H274.118V141.41L271.969 141.779V151.97L274.118 152.339V154H267.223V152.339L269.372 151.97V144.099L269.292 144.073L264.916 154H263.123L258.667 143.862L258.587 143.888V151.97L260.736 152.339V154H253.841ZM291.437 154.277C290.145 154.277 289.02 153.978 288.062 153.38C287.104 152.774 286.361 151.935 285.834 150.862C285.307 149.79 285.043 148.551 285.043 147.145V146.591C285.043 145.237 285.298 144.024 285.808 142.952C286.317 141.88 287.051 141.032 288.009 140.408C288.967 139.784 290.11 139.472 291.437 139.472C292.588 139.472 293.595 139.661 294.456 140.039C295.326 140.417 296.056 140.935 296.645 141.594L296.71 145.022H294.68L294.232 142.53C293.933 142.223 293.56 141.977 293.111 141.792C292.663 141.607 292.136 141.515 291.529 141.515C290.756 141.515 290.075 141.744 289.486 142.201C288.906 142.658 288.453 143.269 288.128 144.033C287.803 144.798 287.64 145.65 287.64 146.591V147.145C287.64 148.182 287.79 149.083 288.088 149.847C288.396 150.612 288.831 151.205 289.394 151.627C289.965 152.04 290.642 152.247 291.424 152.247C292.303 152.247 293.032 152.005 293.612 151.521C294.192 151.038 294.548 150.375 294.68 149.531H297.014L297.04 149.61C296.996 150.427 296.754 151.192 296.315 151.904C295.875 152.616 295.247 153.191 294.43 153.631C293.621 154.062 292.624 154.277 291.437 154.277ZM306.86 154.277C305.542 154.277 304.403 153.969 303.445 153.354C302.496 152.73 301.762 151.873 301.244 150.783C300.725 149.685 300.466 148.432 300.466 147.026V146.736C300.466 145.33 300.725 144.082 301.244 142.992C301.762 141.893 302.496 141.032 303.445 140.408C304.403 139.784 305.533 139.472 306.833 139.472C308.152 139.472 309.286 139.784 310.235 140.408C311.193 141.032 311.931 141.889 312.45 142.979C312.968 144.068 313.228 145.321 313.228 146.736V147.026C313.228 148.441 312.968 149.698 312.45 150.796C311.931 151.886 311.197 152.739 310.248 153.354C309.299 153.969 308.169 154.277 306.86 154.277ZM306.86 152.247C307.686 152.247 308.376 152.022 308.93 151.574C309.492 151.117 309.914 150.498 310.195 149.715C310.485 148.924 310.63 148.028 310.63 147.026V146.736C310.63 145.734 310.485 144.842 310.195 144.06C309.914 143.269 309.492 142.649 308.93 142.201C308.367 141.744 307.668 141.515 306.833 141.515C306.007 141.515 305.313 141.744 304.75 142.201C304.188 142.649 303.766 143.269 303.485 144.06C303.204 144.842 303.063 145.734 303.063 146.736V147.026C303.063 148.028 303.204 148.924 303.485 149.715C303.766 150.498 304.188 151.117 304.75 151.574C305.322 152.022 306.025 152.247 306.86 152.247ZM323.496 154.277C322.177 154.277 321.039 153.969 320.081 153.354C319.132 152.73 318.398 151.873 317.879 150.783C317.361 149.685 317.102 148.432 317.102 147.026V146.736C317.102 145.33 317.361 144.082 317.879 142.992C318.398 141.893 319.132 141.032 320.081 140.408C321.039 139.784 322.168 139.472 323.469 139.472C324.788 139.472 325.921 139.784 326.871 140.408C327.829 141.032 328.567 141.889 329.085 142.979C329.604 144.068 329.863 145.321 329.863 146.736V147.026C329.863 148.441 329.604 149.698 329.085 150.796C328.567 151.886 327.833 152.739 326.884 153.354C325.935 153.969 324.805 154.277 323.496 154.277ZM323.496 152.247C324.322 152.247 325.012 152.022 325.565 151.574C326.128 151.117 326.55 150.498 326.831 149.715C327.121 148.924 327.266 148.028 327.266 147.026V146.736C327.266 145.734 327.121 144.842 326.831 144.06C326.55 143.269 326.128 142.649 325.565 142.201C325.003 141.744 324.304 141.515 323.469 141.515C322.643 141.515 321.949 141.744 321.386 142.201C320.824 142.649 320.402 143.269 320.121 144.06C319.839 144.842 319.699 145.734 319.699 146.736V147.026C319.699 148.028 319.839 148.924 320.121 149.715C320.402 150.498 320.824 151.117 321.386 151.574C321.958 152.022 322.661 152.247 323.496 152.247ZM340.013 154.277C338.703 154.277 337.569 153.982 336.611 153.394C335.662 152.796 334.928 151.974 334.41 150.928C333.891 149.874 333.632 148.665 333.632 147.303V145.457C333.632 143.585 333.896 141.963 334.423 140.592C334.959 139.221 335.715 138.118 336.69 137.283C337.666 136.448 338.817 135.899 340.145 135.635C341.252 135.433 342.052 135.191 342.544 134.91C343.045 134.629 343.295 134.167 343.295 133.526H345.299L345.326 133.605C345.343 134.378 345.26 135.007 345.075 135.49C344.899 135.974 344.618 136.36 344.231 136.65C343.845 136.94 343.353 137.169 342.755 137.336C342.157 137.503 341.45 137.657 340.632 137.797C339.833 137.929 339.103 138.18 338.444 138.549C337.793 138.909 337.253 139.406 336.822 140.039C336.4 140.663 336.124 141.44 335.992 142.372L336.044 142.438C336.563 141.884 337.213 141.432 337.996 141.08C338.787 140.729 339.626 140.553 340.514 140.553C341.718 140.553 342.759 140.83 343.638 141.383C344.517 141.937 345.194 142.702 345.668 143.677C346.152 144.644 346.394 145.756 346.394 147.013V147.303C346.394 148.665 346.134 149.874 345.616 150.928C345.097 151.974 344.359 152.796 343.401 153.394C342.452 153.982 341.322 154.277 340.013 154.277ZM340.013 152.247C340.839 152.247 341.533 152.036 342.096 151.614C342.658 151.183 343.08 150.599 343.361 149.86C343.651 149.113 343.796 148.261 343.796 147.303V147.013C343.796 146.169 343.651 145.413 343.361 144.745C343.071 144.077 342.645 143.55 342.083 143.163C341.52 142.776 340.821 142.583 339.986 142.583C339.16 142.583 338.466 142.776 337.903 143.163C337.35 143.55 336.932 144.077 336.651 144.745C336.37 145.413 336.229 146.169 336.229 147.013V147.303C336.229 148.261 336.37 149.113 336.651 149.86C336.932 150.599 337.354 151.183 337.917 151.614C338.479 152.036 339.178 152.247 340.013 152.247ZM369.186 158.232V154H349.49V152.339L351.639 151.97V141.779L349.49 141.41V139.735H351.639H354.236H356.385V141.41L354.236 141.779V151.97H359.246V139.735H361.843V151.97H366.866V141.779L364.717 141.41V139.735H371.612V141.41L369.463 141.779V151.957H371.757L371.493 158.232H369.186ZM381.708 154.277C380.39 154.277 379.243 153.978 378.268 153.38C377.292 152.774 376.536 151.935 376 150.862C375.473 149.79 375.209 148.551 375.209 147.145V146.564C375.209 145.211 375.486 144.002 376.04 142.939C376.602 141.867 377.345 141.023 378.268 140.408C379.199 139.784 380.214 139.472 381.313 139.472C382.596 139.472 383.668 139.735 384.53 140.263C385.4 140.79 386.055 141.533 386.494 142.491C386.934 143.44 387.153 144.561 387.153 145.853V147.474H377.898L377.859 147.54C377.876 148.454 378.035 149.267 378.333 149.979C378.641 150.682 379.081 151.236 379.652 151.64C380.223 152.044 380.909 152.247 381.708 152.247C382.587 152.247 383.356 152.124 384.016 151.877C384.684 151.623 385.259 151.275 385.743 150.836L386.758 152.523C386.248 153.016 385.571 153.433 384.728 153.776C383.893 154.11 382.886 154.277 381.708 154.277ZM377.978 145.444H384.556V145.101C384.556 144.416 384.433 143.805 384.187 143.269C383.95 142.724 383.589 142.297 383.106 141.99C382.631 141.673 382.034 141.515 381.313 141.515C380.733 141.515 380.206 141.687 379.731 142.029C379.256 142.363 378.865 142.82 378.558 143.4C378.25 143.98 378.048 144.64 377.951 145.378L377.978 145.444ZM390.487 154V152.339L392.636 151.97V141.779L390.487 141.41V139.735H397.382V141.41L395.233 141.779V145.905H401.574V141.779L399.425 141.41V139.735H401.574H404.185H406.333V141.41L404.185 141.779V151.97L406.333 152.339V154H399.425V152.339L401.574 151.97V147.936H395.233V151.97L397.382 152.339V154H390.487ZM409.891 154V152.339L412.04 151.97V141.779L409.891 141.41V139.735H414.624H416.773V141.41L414.624 141.779V149.834L414.703 149.86L420.992 139.735H423.589H425.738V141.41L423.589 141.779V151.97L425.738 152.339V154H418.843V152.339L420.992 151.97V143.901L420.913 143.875L414.624 154H409.891ZM429.295 154V152.339L431.444 151.97V141.779L429.295 141.41V139.735H434.028H436.177V141.41L434.028 141.779V149.834L434.107 149.86L440.396 139.735H442.993H445.142V141.41L442.993 141.779V151.97L445.142 152.339V154H438.247V152.339L440.396 151.97V143.901L440.317 143.875L434.028 154H429.295ZM456.423 154V152.339L458.572 151.97V141.779L456.423 141.41V139.735H458.572H461.921L466.562 150.599H466.641L471.294 139.735H474.551H476.7V141.41L474.551 141.779V151.97L476.7 152.339V154H469.805V152.339L471.954 151.97V144.099L471.875 144.073L467.498 154H465.705L461.249 143.862L461.169 143.888V151.97L463.318 152.339V154H456.423ZM486.348 154.277C485.03 154.277 483.883 153.978 482.907 153.38C481.932 152.774 481.176 151.935 480.64 150.862C480.112 149.79 479.849 148.551 479.849 147.145V146.564C479.849 145.211 480.125 144.002 480.679 142.939C481.242 141.867 481.984 141.023 482.907 140.408C483.839 139.784 484.854 139.472 485.953 139.472C487.236 139.472 488.308 139.735 489.169 140.263C490.04 140.79 490.694 141.533 491.134 142.491C491.573 143.44 491.793 144.561 491.793 145.853V147.474H482.538L482.499 147.54C482.516 148.454 482.674 149.267 482.973 149.979C483.281 150.682 483.72 151.236 484.292 151.64C484.863 152.044 485.548 152.247 486.348 152.247C487.227 152.247 487.996 152.124 488.655 151.877C489.323 151.623 489.899 151.275 490.382 150.836L491.397 152.523C490.888 153.016 490.211 153.433 489.367 153.776C488.532 154.11 487.526 154.277 486.348 154.277ZM482.617 145.444H489.196V145.101C489.196 144.416 489.073 143.805 488.827 143.269C488.589 142.724 488.229 142.297 487.746 141.99C487.271 141.673 486.673 141.515 485.953 141.515C485.373 141.515 484.845 141.687 484.371 142.029C483.896 142.363 483.505 142.82 483.197 143.4C482.89 143.98 482.688 144.64 482.591 145.378L482.617 145.444ZM494.362 154V152.339L496.392 152.049L500.097 146.538L497.71 142.952C497.456 142.574 497.183 142.28 496.893 142.069C496.612 141.858 496.291 141.752 495.931 141.752C495.746 141.752 495.627 141.757 495.575 141.766C495.522 141.774 495.307 141.81 494.929 141.871L494.56 140.104C494.885 139.894 495.179 139.74 495.443 139.643C495.707 139.538 496.045 139.485 496.458 139.485C497.117 139.485 497.719 139.683 498.264 140.078C498.818 140.474 499.314 141.036 499.754 141.766L502.219 145.76H503.788V141.779L501.639 141.41V139.735H508.534V141.41L506.385 141.779V145.76H508.086L510.551 141.766C510.982 141.036 511.47 140.474 512.015 140.078C512.568 139.683 513.184 139.485 513.86 139.485C514.265 139.485 514.599 139.538 514.862 139.643C515.135 139.749 515.429 139.902 515.746 140.104L515.39 141.871C515.012 141.81 514.792 141.774 514.73 141.766C514.678 141.757 514.563 141.752 514.388 141.752C514.019 141.752 513.689 141.858 513.399 142.069C513.109 142.28 512.845 142.574 512.608 142.952L510.143 146.644L513.794 152.049L515.812 152.339V154H511.83L508.125 147.949H506.385V151.97L508.534 152.339V154H501.639V152.339L503.788 151.97V147.949H502.035L498.343 154H494.362ZM518.75 158.192L518.499 151.97H519.62C519.989 151.548 520.31 151.13 520.582 150.717C520.854 150.295 521.092 149.834 521.294 149.333C521.496 148.823 521.659 148.23 521.782 147.553C521.914 146.868 522.01 146.05 522.072 145.101L522.204 141.766L520.134 141.41V139.735H531.604H533.752V141.41L531.604 141.779V151.97H533.502L533.238 158.192H530.905V154H521.083V158.192H518.75ZM522.612 151.97H529.006V142.042H524.788L524.669 145.101C524.572 146.683 524.344 148.032 523.983 149.148C523.632 150.265 523.175 151.205 522.612 151.97ZM539.894 159.761C539.692 159.761 539.428 159.735 539.103 159.682C538.778 159.638 538.527 159.594 538.352 159.55L538.615 157.507C538.765 157.524 538.971 157.538 539.235 157.546C539.499 157.564 539.679 157.573 539.775 157.573C540.329 157.573 540.777 157.362 541.12 156.94C541.472 156.518 541.797 155.942 542.096 155.213L542.715 153.71L537.666 141.621L536.137 141.41V139.735H542.122V141.41L540.395 141.673L543.177 148.806L543.849 150.665H543.928L547.224 141.673L545.405 141.41V139.735H551.271V141.41L549.795 141.621L544.179 156.188C543.915 156.874 543.594 157.485 543.216 158.021C542.847 158.566 542.39 158.992 541.845 159.3C541.309 159.607 540.659 159.761 539.894 159.761ZM561.327 154V152.339L563.476 151.97V136.848L561.327 136.479V134.805H563.476H570.146C571.518 134.805 572.687 135.046 573.653 135.53C574.62 136.004 575.358 136.672 575.868 137.534C576.378 138.395 576.633 139.401 576.633 140.553C576.633 141.713 576.378 142.724 575.868 143.585C575.358 144.446 574.62 145.114 573.653 145.589C572.687 146.063 571.518 146.301 570.146 146.301H566.073V151.97L568.222 152.339V154H561.327ZM566.073 144.271H570.146C571.447 144.271 572.418 143.923 573.06 143.229C573.71 142.526 574.036 141.643 574.036 140.579C574.036 139.516 573.71 138.628 573.06 137.916C572.418 137.204 571.447 136.848 570.146 136.848H566.073V144.271ZM585.583 154.277C584.264 154.277 583.126 153.969 582.168 153.354C581.219 152.73 580.485 151.873 579.966 150.783C579.448 149.685 579.188 148.432 579.188 147.026V146.736C579.188 145.33 579.448 144.082 579.966 142.992C580.485 141.893 581.219 141.032 582.168 140.408C583.126 139.784 584.255 139.472 585.556 139.472C586.875 139.472 588.008 139.784 588.958 140.408C589.916 141.032 590.654 141.889 591.172 142.979C591.691 144.068 591.95 145.321 591.95 146.736V147.026C591.95 148.441 591.691 149.698 591.172 150.796C590.654 151.886 589.92 152.739 588.971 153.354C588.021 153.969 586.892 154.277 585.583 154.277ZM585.583 152.247C586.409 152.247 587.099 152.022 587.652 151.574C588.215 151.117 588.637 150.498 588.918 149.715C589.208 148.924 589.353 148.028 589.353 147.026V146.736C589.353 145.734 589.208 144.842 588.918 144.06C588.637 143.269 588.215 142.649 587.652 142.201C587.09 141.744 586.391 141.515 585.556 141.515C584.73 141.515 584.036 141.744 583.473 142.201C582.911 142.649 582.489 143.269 582.208 144.06C581.926 144.842 581.786 145.734 581.786 146.736V147.026C581.786 148.028 581.926 148.924 582.208 149.715C582.489 150.498 582.911 151.117 583.473 151.574C584.044 152.022 584.748 152.247 585.583 152.247ZM602.218 154.277C600.926 154.277 599.801 153.978 598.843 153.38C597.885 152.774 597.143 151.935 596.615 150.862C596.088 149.79 595.824 148.551 595.824 147.145V146.591C595.824 145.237 596.079 144.024 596.589 142.952C597.099 141.88 597.833 141.032 598.791 140.408C599.749 139.784 600.891 139.472 602.218 139.472C603.37 139.472 604.376 139.661 605.237 140.039C606.107 140.417 606.837 140.935 607.426 141.594L607.492 145.022H605.461L605.013 142.53C604.714 142.223 604.341 141.977 603.893 141.792C603.444 141.607 602.917 141.515 602.311 141.515C601.537 141.515 600.856 141.744 600.267 142.201C599.687 142.658 599.234 143.269 598.909 144.033C598.584 144.798 598.421 145.65 598.421 146.591V147.145C598.421 148.182 598.571 149.083 598.87 149.847C599.177 150.612 599.612 151.205 600.175 151.627C600.746 152.04 601.423 152.247 602.205 152.247C603.084 152.247 603.813 152.005 604.394 151.521C604.974 151.038 605.33 150.375 605.461 149.531H607.795L607.821 149.61C607.777 150.427 607.536 151.192 607.096 151.904C606.657 152.616 606.028 153.191 605.211 153.631C604.402 154.062 603.405 154.277 602.218 154.277ZM617.826 154.277C616.534 154.277 615.409 153.978 614.451 153.38C613.493 152.774 612.75 151.935 612.223 150.862C611.695 149.79 611.432 148.551 611.432 147.145V146.591C611.432 145.237 611.687 144.024 612.196 142.952C612.706 141.88 613.44 141.032 614.398 140.408C615.356 139.784 616.499 139.472 617.826 139.472C618.977 139.472 619.983 139.661 620.845 140.039C621.715 140.417 622.444 140.935 623.033 141.594L623.099 145.022H621.069L620.621 142.53C620.322 142.223 619.948 141.977 619.5 141.792C619.052 141.607 618.524 141.515 617.918 141.515C617.145 141.515 616.463 141.744 615.875 142.201C615.294 142.658 614.842 143.269 614.517 144.033C614.191 144.798 614.029 145.65 614.029 146.591V147.145C614.029 148.182 614.178 149.083 614.477 149.847C614.785 150.612 615.22 151.205 615.782 151.627C616.354 152.04 617.03 152.247 617.812 152.247C618.691 152.247 619.421 152.005 620.001 151.521C620.581 151.038 620.937 150.375 621.069 149.531H623.402L623.429 149.61C623.385 150.427 623.143 151.192 622.704 151.904C622.264 152.616 621.636 153.191 620.818 153.631C620.01 154.062 619.012 154.277 617.826 154.277ZM626.762 154V152.339L628.911 151.97V141.779L626.762 141.41V139.735H631.495H633.644V141.41L631.495 141.779V149.834L631.574 149.86L637.863 139.735H640.46H642.609V141.41L640.46 141.779V151.97L642.609 152.339V154H635.714V152.339L637.863 151.97V143.901L637.784 143.875L631.495 154H626.762ZM652.363 154.277C651.044 154.277 649.897 153.978 648.922 153.38C647.946 152.774 647.19 151.935 646.654 150.862C646.127 149.79 645.863 148.551 645.863 147.145V146.564C645.863 145.211 646.14 144.002 646.694 142.939C647.256 141.867 647.999 141.023 648.922 140.408C649.854 139.784 650.869 139.472 651.967 139.472C653.25 139.472 654.323 139.735 655.184 140.263C656.054 140.79 656.709 141.533 657.148 142.491C657.588 143.44 657.808 144.561 657.808 145.853V147.474H648.553L648.513 147.54C648.531 148.454 648.689 149.267 648.988 149.979C649.295 150.682 649.735 151.236 650.306 151.64C650.877 152.044 651.563 152.247 652.363 152.247C653.242 152.247 654.011 152.124 654.67 151.877C655.338 151.623 655.914 151.275 656.397 150.836L657.412 152.523C656.902 153.016 656.226 153.433 655.382 153.776C654.547 154.11 653.541 154.277 652.363 154.277ZM648.632 145.444H655.21V145.101C655.21 144.416 655.087 143.805 654.841 143.269C654.604 142.724 654.244 142.297 653.76 141.99C653.286 141.673 652.688 141.515 651.967 141.515C651.387 141.515 650.86 141.687 650.385 142.029C649.911 142.363 649.52 142.82 649.212 143.4C648.904 143.98 648.702 144.64 648.605 145.378L648.632 145.444ZM661.141 154V152.339L663.29 151.97V141.779L661.141 141.41V139.735H665.874H668.023V141.41L665.874 141.779V149.834L665.953 149.86L672.242 139.735H674.839H676.988V141.41L674.839 141.779V151.97L676.988 152.339V154H670.093V152.339L672.242 151.97V143.901L672.163 143.875L665.874 154H661.141ZM669.144 137.23C667.869 137.23 666.867 136.888 666.138 136.202C665.408 135.508 665.043 134.611 665.043 133.513L665.07 133.434H667.047C667.047 134.066 667.214 134.581 667.548 134.976C667.891 135.372 668.423 135.569 669.144 135.569C669.847 135.569 670.37 135.372 670.712 134.976C671.055 134.581 671.227 134.066 671.227 133.434H673.217L673.244 133.513C673.235 134.611 672.866 135.508 672.136 136.202C671.416 136.888 670.418 137.23 669.144 137.23ZM688.269 154V152.339L690.418 151.97V141.779L688.269 141.41V139.735H693.002H695.151V141.41L693.002 141.779V149.834L693.081 149.86L699.37 139.735H701.967H704.116V141.41L701.967 141.779V151.97L704.116 152.339V154H697.221V152.339L699.37 151.97V143.901L699.291 143.875L693.002 154H688.269ZM715.054 154V152.339L717.203 151.97V136.848L715.054 136.479V134.805H721.949V136.479L719.8 136.848V143.453H721.896L726.234 137.204C726.946 136.22 727.565 135.552 728.093 135.2C728.62 134.84 729.231 134.66 729.925 134.66C730.338 134.66 730.686 134.712 730.967 134.818C731.257 134.915 731.56 135.06 731.876 135.253L731.494 137.085C731.257 137.042 731.046 137.006 730.861 136.98C730.686 136.945 730.51 136.927 730.334 136.927C729.921 136.927 729.569 137.037 729.279 137.257C728.998 137.477 728.668 137.85 728.291 138.377L724.164 144.125L730.545 152.009L732.351 152.339V154H726.049V152.339L727.513 152.154L727.46 152.088L722.279 145.642H719.8V151.97L721.949 152.339V154H715.054ZM735.223 154V152.339L737.372 151.97V141.779L735.223 141.41V139.735H739.956H742.105V141.41L739.956 141.779V149.834L740.035 149.86L746.324 139.735H748.921H751.07V141.41L748.921 141.779V151.97L751.07 152.339V154H744.175V152.339L746.324 151.97V143.901L746.245 143.875L739.956 154H735.223ZM757.646 154V152.339L759.795 151.97V141.752H756.79L756.592 143.98H754.377V139.735H767.877V143.98H765.649L765.451 141.752H762.393V151.97L764.542 152.339V154H757.646ZM775.363 154.277C773.878 154.277 772.749 153.917 771.975 153.196C771.202 152.466 770.815 151.442 770.815 150.124C770.815 149.219 771.061 148.432 771.553 147.764C772.054 147.087 772.775 146.564 773.715 146.195C774.656 145.817 775.781 145.628 777.09 145.628H779.635V144.231C779.635 143.37 779.371 142.702 778.844 142.227C778.325 141.752 777.591 141.515 776.642 141.515C776.044 141.515 775.526 141.59 775.086 141.739C774.647 141.88 774.247 142.078 773.887 142.333L773.61 144.323H771.606V141.054C772.248 140.535 772.995 140.144 773.847 139.88C774.7 139.608 775.645 139.472 776.682 139.472C778.413 139.472 779.771 139.885 780.755 140.711C781.74 141.537 782.232 142.719 782.232 144.257V151.126C782.232 151.311 782.232 151.491 782.232 151.667C782.241 151.842 782.254 152.018 782.271 152.194L783.656 152.339V154H779.925C779.846 153.613 779.784 153.266 779.74 152.958C779.696 152.651 779.666 152.343 779.648 152.036C779.147 152.677 778.519 153.213 777.763 153.644C777.016 154.066 776.216 154.277 775.363 154.277ZM775.746 152.102C776.607 152.102 777.394 151.895 778.105 151.482C778.817 151.069 779.327 150.572 779.635 149.992V147.408H776.998C775.803 147.408 774.906 147.694 774.309 148.265C773.711 148.836 773.412 149.474 773.412 150.177C773.412 150.801 773.605 151.28 773.992 151.614C774.379 151.939 774.963 152.102 775.746 152.102ZM793.172 154.277C791.854 154.277 790.707 153.978 789.731 153.38C788.756 152.774 788 151.935 787.464 150.862C786.937 149.79 786.673 148.551 786.673 147.145V146.564C786.673 145.211 786.95 144.002 787.503 142.939C788.066 141.867 788.809 141.023 789.731 140.408C790.663 139.784 791.678 139.472 792.777 139.472C794.06 139.472 795.132 139.735 795.994 140.263C796.864 140.79 797.519 141.533 797.958 142.491C798.397 143.44 798.617 144.561 798.617 145.853V147.474H789.362L789.323 147.54C789.34 148.454 789.499 149.267 789.797 149.979C790.105 150.682 790.544 151.236 791.116 151.64C791.687 152.044 792.373 152.247 793.172 152.247C794.051 152.247 794.82 152.124 795.479 151.877C796.147 151.623 796.723 151.275 797.207 150.836L798.222 152.523C797.712 153.016 797.035 153.433 796.191 153.776C795.356 154.11 794.35 154.277 793.172 154.277ZM789.441 145.444H796.02V145.101C796.02 144.416 795.897 143.805 795.651 143.269C795.414 142.724 795.053 142.297 794.57 141.99C794.095 141.673 793.498 141.515 792.777 141.515C792.197 141.515 791.669 141.687 791.195 142.029C790.72 142.363 790.329 142.82 790.021 143.4C789.714 143.98 789.512 144.64 789.415 145.378L789.441 145.444ZM801.951 154V152.339L804.1 151.97V141.779L801.951 141.41V139.735H804.1H807.448L812.089 150.599H812.168L816.822 139.735H820.078H822.227V141.41L820.078 141.779V151.97L822.227 152.339V154H815.332V152.339L817.481 151.97V144.099L817.402 144.073L813.025 154H811.232L806.776 143.862L806.697 143.888V151.97L808.846 152.339V154H801.951Z" fill="black"/>
</svg>
